<svg width="25" height="24" viewBox="0 0 25 24" fill="none" xmlns="http://www.w3.org/2000/svg">
<path d="M18.7922 17.5323C11.5058 21 6.98384 18.0987 4.08916 16.3365C3.91004 16.2254 3.60559 16.3624 3.86974 16.6658C4.8341 17.8352 7.99452 20.6535 12.1198 20.6535C16.2479 20.6535 18.7037 18.401 19.0109 18.0081C19.3161 17.6185 19.1005 17.4036 18.7921 17.5323H18.7922ZM20.8386 16.4022C20.6429 16.1474 19.6488 16.0999 19.0231 16.1767C18.3965 16.2514 17.456 16.6343 17.5377 16.8643C17.5797 16.9504 17.6653 16.9118 18.0958 16.8731C18.5274 16.83 19.7366 16.6774 19.9886 17.0068C20.2417 17.3384 19.6029 18.9183 19.4863 19.1731C19.3735 19.4279 19.5293 19.4936 19.7411 19.3239C19.9499 19.1543 20.3279 18.715 20.5816 18.0933C20.8336 17.4682 20.9872 16.5962 20.8385 16.4022H20.8386Z" fill="#FF9900"/>
<path fill-rule="evenodd" clip-rule="evenodd" d="M13.8929 10.4565C13.8929 11.3664 13.9159 12.1251 13.456 12.9332C13.0848 13.5902 12.4968 13.9942 11.8399 13.9942C10.9431 13.9942 10.4208 13.3109 10.4208 12.3025C10.4208 10.3119 12.2044 9.95063 13.8929 9.95063V10.4565ZM16.2481 16.149C16.0937 16.287 15.8703 16.2969 15.6962 16.2049C14.921 15.5611 14.783 15.2622 14.356 14.6479C13.075 15.9552 12.1684 16.3461 10.5063 16.3461C8.54197 16.3461 7.01123 15.134 7.01123 12.7065C7.01123 10.8113 8.03943 9.52031 9.50107 8.88968C10.769 8.3312 12.5396 8.23267 13.8929 8.07834V7.77611C13.8929 7.22095 13.9355 6.56401 13.6104 6.08446C13.3246 5.65414 12.7793 5.47675 12.2997 5.47675C11.4096 5.47675 10.6146 5.93331 10.4208 6.87932C10.3814 7.0896 10.227 7.29656 10.0168 7.30639L7.75029 7.06336C7.55981 7.02057 7.3496 6.86624 7.40215 6.57384C7.92442 3.82782 10.4044 3 12.6249 3C13.7614 3 15.2461 3.30223 16.1429 4.16287C17.2794 5.22382 17.171 6.63955 17.171 8.18012V11.8197C17.171 12.9135 17.6243 13.3931 18.0513 13.9844C18.2024 14.1946 18.2353 14.4476 18.0447 14.6052C17.5684 15.0026 16.721 15.7417 16.2546 16.1556L16.248 16.149" fill="black"/>
<path d="M18.7922 17.5323C11.5058 21 6.98384 18.0987 4.08916 16.3365C3.91004 16.2254 3.60559 16.3624 3.86974 16.6658C4.8341 17.8352 7.99452 20.6535 12.1198 20.6535C16.2479 20.6535 18.7037 18.401 19.0109 18.0081C19.3161 17.6185 19.1005 17.4036 18.7921 17.5323H18.7922ZM20.8386 16.4022C20.6429 16.1474 19.6488 16.0999 19.0231 16.1767C18.3965 16.2514 17.456 16.6343 17.5377 16.8643C17.5797 16.9504 17.6653 16.9118 18.0958 16.8731C18.5274 16.83 19.7366 16.6774 19.9886 17.0068C20.2417 17.3384 19.6029 18.9183 19.4863 19.1731C19.3735 19.4279 19.5293 19.4936 19.7411 19.3239C19.9499 19.1543 20.3279 18.715 20.5816 18.0933C20.8336 17.4682 20.9872 16.5962 20.8385 16.4022H20.8386Z" fill="#FF9900"/>
<path fill-rule="evenodd" clip-rule="evenodd" d="M13.8929 10.4565C13.8929 11.3664 13.9159 12.1251 13.456 12.9332C13.0848 13.5902 12.4968 13.9942 11.8399 13.9942C10.9431 13.9942 10.4208 13.3109 10.4208 12.3025C10.4208 10.3119 12.2044 9.95063 13.8929 9.95063V10.4565ZM16.2481 16.149C16.0937 16.287 15.8703 16.2969 15.6962 16.2049C14.921 15.5611 14.783 15.2622 14.356 14.6479C13.075 15.9552 12.1684 16.3461 10.5063 16.3461C8.54197 16.3461 7.01123 15.134 7.01123 12.7065C7.01123 10.8113 8.03943 9.52031 9.50107 8.88968C10.769 8.3312 12.5396 8.23267 13.8929 8.07834V7.77611C13.8929 7.22095 13.9355 6.56401 13.6104 6.08446C13.3246 5.65414 12.7793 5.47675 12.2997 5.47675C11.4096 5.47675 10.6146 5.93331 10.4208 6.87932C10.3814 7.0896 10.227 7.29656 10.0168 7.30639L7.75029 7.06336C7.55981 7.02057 7.3496 6.86624 7.40215 6.57384C7.92442 3.82782 10.4044 3 12.6249 3C13.7614 3 15.2461 3.30223 16.1429 4.16287C17.2794 5.22382 17.171 6.63955 17.171 8.18012V11.8197C17.171 12.9135 17.6243 13.3931 18.0513 13.9844C18.2024 14.1946 18.2353 14.4476 18.0447 14.6052C17.5684 15.0026 16.721 15.7417 16.2546 16.1556L16.248 16.149" fill="black"/>
</svg>
