<svg width="25" height="24" viewBox="0 0 25 24" fill="none" xmlns="http://www.w3.org/2000/svg">
<path d="M16.4387 14.471C16.0254 14.471 15.6892 14.1393 15.6892 13.7317C15.6892 13.3242 16.0254 12.9927 16.4387 12.9927C16.852 12.9927 17.1882 13.3242 17.1882 13.7317C17.1882 14.1393 16.852 14.471 16.4387 14.471ZM8.15411 14.471C7.74082 14.471 7.40464 14.1393 7.40464 13.7317C7.40464 13.3242 7.74076 12.9927 8.15411 12.9927C8.5674 12.9927 8.90359 13.3242 8.90359 13.7317C8.90359 14.1393 8.56747 14.471 8.15411 14.471ZM16.7075 10.019L18.2055 7.46079C18.2467 7.39019 18.2579 7.30634 18.2365 7.22765C18.2151 7.14895 18.1629 7.08183 18.0914 7.04102C18.0198 7.00038 17.9348 6.9894 17.855 7.01049C17.7752 7.03157 17.7071 7.08301 17.6657 7.15351L16.149 9.74408C14.989 9.22218 13.6864 8.9314 12.2964 8.9314C10.9064 8.9314 9.60374 9.22218 8.44386 9.74408L6.92708 7.15351C6.88568 7.08301 6.81761 7.03157 6.73781 7.01049C6.658 6.9894 6.57298 7.00038 6.50137 7.04102C6.42982 7.0818 6.37761 7.14891 6.35622 7.22762C6.33483 7.30634 6.34601 7.3902 6.3873 7.46079L7.88529 10.019C5.31302 11.3985 3.55376 13.9663 3.29639 17H21.2964C21.0388 13.9664 19.2795 11.3985 16.7075 10.019" fill="#3DDB85"/>
</svg>
