<svg width="25" height="24" viewBox="0 0 25 24" fill="none" xmlns="http://www.w3.org/2000/svg">
<path d="M7.23838 3H17.3544C19.5315 3 21.2964 4.76489 21.2964 6.94199V17.058C21.2964 19.2351 19.5315 21 17.3544 21H7.23838C5.06128 21 3.29639 19.2351 3.29639 17.058V6.94199C3.29639 4.76489 5.06128 3 7.23838 3Z" fill="url(#paint0_linear_18_1667)"/>
<path d="M9.06536 16.0649L9.06705 16.0655L8.45163 17.1314C8.22699 17.5205 7.72943 17.6538 7.34034 17.4292C6.95126 17.2045 6.81794 16.707 7.04257 16.3179L7.49594 15.5326L7.53944 15.4573C7.61715 15.3456 7.8089 15.1529 8.19245 15.1891C8.19245 15.1891 9.09503 15.287 9.16034 15.7561C9.16036 15.7561 9.16927 15.9105 9.06536 16.0649ZM17.7942 13.3423H15.8751C15.7444 13.3336 15.6873 13.2869 15.6649 13.2598L15.6635 13.2573L13.6091 9.69908L13.6065 9.70086L13.4832 9.5242C13.2813 9.21543 12.9607 10.0052 12.9607 10.0052C12.5779 10.8852 13.015 11.8857 13.1674 12.1881L16.0208 17.1303C16.2454 17.5194 16.743 17.6527 17.1321 17.428C17.5212 17.2034 17.6545 16.7059 17.4299 16.3168L16.7163 15.0809C16.7025 15.051 16.6785 14.9697 16.8248 14.9694H17.7942C18.2435 14.9694 18.6077 14.6051 18.6077 14.1559C18.6077 13.7066 18.2435 13.3423 17.7942 13.3423ZM14.0666 14.4483C14.0666 14.4483 14.1691 14.9694 13.7727 14.9694H13.3763V14.9694H6.67826C6.22897 14.9694 5.86475 14.6051 5.86475 14.1559C5.86475 13.7066 6.22897 13.3423 6.67826 13.3423H8.50217C8.79663 13.3253 8.86644 13.1553 8.86644 13.1553L8.86805 13.1561L11.2489 9.03242L11.2481 9.03228C11.2916 8.95262 11.2554 8.87735 11.2491 8.86544L10.4629 7.50361C10.2382 7.11451 10.3715 6.61697 10.7606 6.39233C11.1497 6.16768 11.6472 6.301 11.8719 6.69009L12.2366 7.32171L12.6006 6.69122C12.8252 6.30212 13.3227 6.1688 13.7118 6.39346C14.1009 6.61811 14.2343 7.11565 14.0096 7.50473L10.6966 13.2429C10.6822 13.2779 10.6777 13.3327 10.7855 13.3423H12.7658L12.7662 13.3616C12.7662 13.3616 13.9108 13.3795 14.0666 14.4483Z" fill="white"/>
<defs>
<linearGradient id="paint0_linear_18_1667" x1="12.2964" y1="3" x2="12.2964" y2="21" gradientUnits="userSpaceOnUse">
<stop stop-color="#17C9FB"/>
<stop offset="1" stop-color="#1A74E8"/>
</linearGradient>
</defs>
</svg>
