<svg width="25" height="24" viewBox="0 0 25 24" fill="none" xmlns="http://www.w3.org/2000/svg">
<path d="M17.539 11.5628C17.5643 14.2868 19.9286 15.1933 19.9548 15.2048C19.9348 15.2687 19.577 16.4966 18.7092 17.7649C17.9589 18.8615 17.1803 19.9539 15.9537 19.9766C14.7484 19.9988 14.3609 19.2619 12.983 19.2619C11.6054 19.2619 11.1748 19.954 10.0339 19.9988C8.84996 20.0436 7.94835 18.8131 7.19191 17.7206C5.64616 15.4858 4.46489 11.4057 6.05104 8.65155C6.839 7.28383 8.24716 6.41773 9.77559 6.39552C10.9382 6.37334 12.0356 7.1777 12.7463 7.1777C13.4566 7.1777 14.7902 6.21039 16.1921 6.35245C16.779 6.37688 18.4264 6.58952 19.4842 8.13794C19.399 8.19078 17.5185 9.28549 17.539 11.5628ZM15.2739 4.87397C15.9024 4.1131 16.3255 3.0539 16.2101 2C15.304 2.03642 14.2084 2.60377 13.5585 3.36422C12.9761 4.03763 12.466 5.11548 12.6037 6.14852C13.6136 6.22665 14.6452 5.63532 15.2739 4.87397Z" fill="black"/>
</svg>
