<svg width="25" height="24" viewBox="0 0 25 24" fill="none" xmlns="http://www.w3.org/2000/svg">
<path fill-rule="evenodd" clip-rule="evenodd" d="M20.9424 18.6C20.7684 19.044 20.3664 19.668 19.7904 20.112C19.4604 20.364 19.0644 20.61 18.5244 20.772C17.9484 20.946 17.2344 21 16.3464 21H8.24639C7.35839 21 6.65039 20.94 6.06839 20.772C5.52839 20.61 5.13239 20.37 4.80239 20.112C4.23239 19.674 3.82439 19.044 3.65039 18.6C3.30239 17.706 3.29639 16.692 3.29639 16.05V7.95C3.29639 7.308 3.30239 6.294 3.65039 5.4C3.82439 4.956 4.22639 4.332 4.80239 3.888C5.13239 3.636 5.52839 3.39 6.06839 3.228C6.65039 3.06 7.35839 3 8.24639 3H16.3464C17.2344 3 17.9424 3.06 18.5244 3.228C19.0644 3.39 19.4604 3.63 19.7904 3.888C20.3604 4.326 20.7684 4.956 20.9424 5.4C21.2964 6.294 21.2964 7.314 21.2964 7.95V16.05C21.2964 16.692 21.2904 17.706 20.9424 18.6Z" fill="url(#paint0_linear_18_1620)"/>
<path d="M13.8384 13.866C13.8144 13.65 13.7424 13.494 13.5984 13.35C13.3284 13.068 12.8544 12.882 12.2964 12.882C11.7384 12.882 11.2644 13.062 10.9944 13.35C10.8564 13.5 10.7784 13.65 10.7544 13.866C10.7064 14.286 10.7364 14.646 10.7844 15.228C10.8324 15.78 10.9224 16.518 11.0364 17.262C11.1204 17.796 11.1864 18.084 11.2464 18.288C11.3484 18.624 11.7144 18.912 12.2964 18.912C12.8784 18.912 13.2504 18.618 13.3464 18.288C13.4064 18.084 13.4724 17.796 13.5564 17.262C13.6704 16.512 13.7604 15.78 13.8084 15.228C13.8624 14.646 13.8864 14.286 13.8384 13.866Z" fill="white"/>
<path d="M13.7728 10.8061C13.7728 11.6221 13.1128 12.2821 12.2968 12.2821C11.4808 12.2821 10.8208 11.6221 10.8208 10.8061C10.8208 9.99008 11.4808 9.33008 12.2968 9.33008C13.1128 9.33008 13.7728 9.99608 13.7728 10.8061Z" fill="white"/>
<path d="M12.2788 4.9922C8.83484 5.0042 6.01484 7.8002 5.96684 11.2442C5.93084 14.0342 7.71284 16.4222 10.2028 17.2982C10.2628 17.3222 10.3228 17.2682 10.3168 17.2082C10.2868 16.9922 10.2508 16.7762 10.2268 16.5602C10.2148 16.4822 10.1668 16.4222 10.1008 16.3862C8.13284 15.5282 6.75884 13.5542 6.78284 11.2682C6.81284 8.2682 9.26084 5.8262 12.2548 5.8022C15.3208 5.7782 17.8228 8.2622 17.8228 11.3222C17.8228 13.5842 16.4548 15.5282 14.5048 16.3862C14.4328 16.4162 14.3848 16.4822 14.3788 16.5602C14.3488 16.7762 14.3188 16.9922 14.2888 17.2082C14.2768 17.2742 14.3428 17.3222 14.4028 17.2982C16.8688 16.4342 18.6388 14.0822 18.6388 11.3222C18.6268 7.8302 15.7768 4.9862 12.2788 4.9922Z" fill="white"/>
<path d="M12.1344 7.09201C9.89038 7.17601 8.09038 9.03001 8.06038 11.274C8.04238 12.75 8.78038 14.058 9.91438 14.832C9.96838 14.868 10.0464 14.826 10.0464 14.76C10.0284 14.502 10.0284 14.274 10.0404 14.034C10.0464 13.956 10.0164 13.884 9.95638 13.83C9.26638 13.182 8.84638 12.258 8.87038 11.238C8.91838 9.43801 10.3644 7.97401 12.1644 7.90201C14.1204 7.82401 15.7284 9.39601 15.7284 11.328C15.7284 12.312 15.3084 13.2 14.6424 13.83C14.5884 13.884 14.5584 13.956 14.5584 14.034C14.5704 14.268 14.5644 14.496 14.5524 14.754C14.5464 14.82 14.6244 14.868 14.6844 14.826C15.8004 14.064 16.5384 12.774 16.5384 11.322C16.5444 8.93401 14.5464 6.99601 12.1344 7.09201Z" fill="white"/>
<defs>
<linearGradient id="paint0_linear_18_1620" x1="12.2964" y1="3" x2="12.2964" y2="21" gradientUnits="userSpaceOnUse">
<stop stop-color="#F452FF"/>
<stop offset="1" stop-color="#832BC1"/>
</linearGradient>
</defs>
</svg>
