<svg width="102" height="24" viewBox="0 0 102 24" fill="none" xmlns="http://www.w3.org/2000/svg">
<path d="M8.22498 12L15.725 4.5L16.775 5.55L10.325 12L16.775 18.45L15.725 19.5L8.22498 12Z" fill="black"/>
<path d="M33.8636 9.5C33.7386 9.11742 33.5739 8.77462 33.3693 8.47159C33.1686 8.16477 32.928 7.90341 32.6477 7.6875C32.3712 7.47159 32.0568 7.30682 31.7045 7.19318C31.3523 7.07955 30.9659 7.02273 30.5455 7.02273C29.8561 7.02273 29.2292 7.20076 28.6648 7.55682C28.1004 7.91288 27.6515 8.4375 27.3182 9.13068C26.9848 9.82386 26.8182 10.6742 26.8182 11.6818C26.8182 12.6894 26.9867 13.5398 27.3239 14.233C27.661 14.9261 28.1174 15.4508 28.6932 15.8068C29.2689 16.1629 29.9167 16.3409 30.6364 16.3409C31.303 16.3409 31.8902 16.1989 32.3977 15.9148C32.9091 15.6269 33.3068 15.2216 33.5909 14.6989C33.8788 14.1723 34.0227 13.553 34.0227 12.8409L34.4545 12.9318H30.9545V11.6818H35.3864V12.9318C35.3864 13.8902 35.1818 14.7235 34.7727 15.4318C34.3674 16.1402 33.8068 16.6894 33.0909 17.0795C32.3788 17.4659 31.5606 17.6591 30.6364 17.6591C29.6061 17.6591 28.7008 17.4167 27.9205 16.9318C27.1439 16.447 26.5379 15.7576 26.1023 14.8636C25.6705 13.9697 25.4545 12.9091 25.4545 11.6818C25.4545 10.7614 25.5777 9.93371 25.8239 9.19886C26.0739 8.46023 26.4261 7.83144 26.8807 7.3125C27.3352 6.79356 27.8731 6.39583 28.4943 6.11932C29.1155 5.8428 29.7992 5.70455 30.5455 5.70455C31.1591 5.70455 31.7311 5.79735 32.2614 5.98295C32.7955 6.16477 33.2708 6.42424 33.6875 6.76136C34.108 7.0947 34.4583 7.49432 34.7386 7.96023C35.0189 8.42235 35.2121 8.93561 35.3182 9.5H33.8636ZM39.9461 17.7045C39.393 17.7045 38.8912 17.6004 38.4404 17.392C37.9896 17.1799 37.6317 16.875 37.3665 16.4773C37.1014 16.0758 36.9688 15.5909 36.9688 15.0227C36.9688 14.5227 37.0673 14.1174 37.2643 13.8068C37.4612 13.4924 37.7245 13.2462 38.054 13.0682C38.3836 12.8902 38.7472 12.7576 39.1449 12.6705C39.5465 12.5795 39.9499 12.5076 40.3552 12.4545C40.8855 12.3864 41.3154 12.3352 41.6449 12.3011C41.9783 12.2633 42.2207 12.2008 42.3722 12.1136C42.5275 12.0265 42.6052 11.875 42.6052 11.6591V11.6136C42.6052 11.053 42.4518 10.6174 42.1449 10.3068C41.8419 9.99621 41.3817 9.84091 40.7643 9.84091C40.1241 9.84091 39.6222 9.98106 39.2586 10.2614C38.8949 10.5417 38.6393 10.8409 38.4915 11.1591L37.2188 10.7045C37.4461 10.1742 37.7491 9.76136 38.1279 9.46591C38.5105 9.16667 38.9271 8.95833 39.3779 8.84091C39.8324 8.7197 40.2794 8.65909 40.7188 8.65909C40.9991 8.65909 41.3211 8.69318 41.6847 8.76136C42.0521 8.82576 42.4063 8.96023 42.7472 9.16477C43.0919 9.36932 43.3779 9.67803 43.6052 10.0909C43.8324 10.5038 43.9461 11.0568 43.9461 11.75V17.5H42.6052V16.3182H42.537C42.4461 16.5076 42.2946 16.7102 42.0824 16.9261C41.8703 17.142 41.5881 17.3258 41.2359 17.4773C40.8836 17.6288 40.4537 17.7045 39.9461 17.7045ZM40.1506 16.5C40.6809 16.5 41.1279 16.3958 41.4915 16.1875C41.859 15.9792 42.1355 15.7102 42.3211 15.3807C42.5105 15.0511 42.6052 14.7045 42.6052 14.3409V13.1136C42.5484 13.1818 42.4234 13.2443 42.2302 13.3011C42.0408 13.3542 41.8211 13.4015 41.5711 13.4432C41.3249 13.4811 41.0843 13.5152 40.8495 13.5455C40.6184 13.572 40.4309 13.5947 40.287 13.6136C39.9385 13.6591 39.6127 13.733 39.3097 13.8352C39.0105 13.9337 38.768 14.0833 38.5824 14.2841C38.4006 14.4811 38.3097 14.75 38.3097 15.0909C38.3097 15.5568 38.4821 15.9091 38.8268 16.1477C39.1752 16.3826 39.6165 16.5 40.1506 16.5ZM40.8097 7.79545C40.4234 7.79545 40.073 7.71023 39.7586 7.53977C39.448 7.36932 39.1999 7.13826 39.0143 6.84659C38.8324 6.55492 38.7415 6.22727 38.7415 5.86364C38.7415 5.5 38.8324 5.16667 39.0143 4.86364C39.1999 4.56061 39.448 4.31818 39.7586 4.13636C40.073 3.95455 40.4234 3.86364 40.8097 3.86364C41.1961 3.86364 41.5427 3.95455 41.8495 4.13636C42.1601 4.31818 42.4044 4.56061 42.5824 4.86364C42.7643 5.16667 42.8552 5.5 42.8552 5.86364C42.8552 6.22727 42.7643 6.55492 42.5824 6.84659C42.4044 7.13826 42.1601 7.36932 41.8495 7.53977C41.5427 7.71023 41.1961 7.79545 40.8097 7.79545ZM40.8097 6.93182C41.1279 6.93182 41.3893 6.82197 41.5938 6.60227C41.7984 6.38258 41.9006 6.13636 41.9006 5.86364C41.9006 5.57955 41.7984 5.32386 41.5938 5.09659C41.3893 4.86553 41.1279 4.75 40.8097 4.75C40.4915 4.75 40.2302 4.86553 40.0256 5.09659C39.8211 5.32386 39.7188 5.57955 39.7188 5.86364C39.7188 6.13636 39.8211 6.38258 40.0256 6.60227C40.2302 6.82197 40.4915 6.93182 40.8097 6.93182ZM54.209 8.77273V9.90909H49.6863V8.77273H54.209ZM51.0044 6.68182H52.3453V15C52.3453 15.3788 52.4003 15.6629 52.5101 15.8523C52.6238 16.0379 52.7677 16.1629 52.9419 16.2273C53.12 16.2879 53.3075 16.3182 53.5044 16.3182C53.6522 16.3182 53.7734 16.3106 53.8681 16.2955C53.9628 16.2765 54.0385 16.2614 54.0953 16.25L54.3681 17.4545C54.2772 17.4886 54.1503 17.5227 53.9874 17.5568C53.8245 17.5947 53.6181 17.6136 53.3681 17.6136C52.9893 17.6136 52.6181 17.5322 52.2544 17.3693C51.8946 17.2064 51.5953 16.9583 51.3567 16.625C51.1219 16.2917 51.0044 15.8712 51.0044 15.3636V6.68182ZM55.986 17.5V8.77273H57.3269V17.5H55.986ZM56.6678 7.31818C56.4065 7.31818 56.1811 7.22917 55.9917 7.05114C55.8061 6.87311 55.7133 6.65909 55.7133 6.40909C55.7133 6.15909 55.8061 5.94508 55.9917 5.76705C56.1811 5.58902 56.4065 5.5 56.6678 5.5C56.9292 5.5 57.1527 5.58902 57.3383 5.76705C57.5277 5.94508 57.6224 6.15909 57.6224 6.40909C57.6224 6.65909 57.5277 6.87311 57.3383 7.05114C57.1527 7.22917 56.9292 7.31818 56.6678 7.31818ZM60.8838 5.86364V17.5H59.5429V5.86364H60.8838ZM64.4407 5.86364V17.5H63.0998V5.86364H64.4407ZM66.8385 17.5V5.86364H68.1794V10.1591H68.293C68.3915 10.0076 68.5279 9.81439 68.7021 9.57955C68.8801 9.34091 69.1339 9.12879 69.4635 8.94318C69.7968 8.75379 70.2476 8.65909 70.8157 8.65909C71.5506 8.65909 72.1983 8.8428 72.7589 9.21023C73.3195 9.57765 73.757 10.0985 74.0714 10.7727C74.3858 11.447 74.543 12.2424 74.543 13.1591C74.543 14.0833 74.3858 14.8845 74.0714 15.5625C73.757 16.2367 73.3214 16.7595 72.7646 17.1307C72.2078 17.4981 71.5657 17.6818 70.8385 17.6818C70.2779 17.6818 69.829 17.589 69.4919 17.4034C69.1548 17.214 68.8953 17 68.7135 16.7614C68.5316 16.5189 68.3915 16.3182 68.293 16.1591H68.1339V17.5H66.8385ZM68.1566 13.1364C68.1566 13.7955 68.2532 14.3769 68.4464 14.8807C68.6396 15.3807 68.9218 15.7727 69.293 16.0568C69.6642 16.3371 70.1188 16.4773 70.6566 16.4773C71.2173 16.4773 71.6851 16.3295 72.0601 16.0341C72.4388 15.7348 72.7229 15.3333 72.9123 14.8295C73.1055 14.322 73.2021 13.7576 73.2021 13.1364C73.2021 12.5227 73.1074 11.9697 72.918 11.4773C72.7324 10.9811 72.4502 10.589 72.0714 10.3011C71.6964 10.0095 71.2248 9.86364 70.6566 9.86364C70.1112 9.86364 69.6529 10.0019 69.2816 10.2784C68.9104 10.5511 68.6301 10.9337 68.4407 11.4261C68.2513 11.9148 68.1566 12.4848 68.1566 13.1364ZM78.9223 17.7045C78.3693 17.7045 77.8674 17.6004 77.4166 17.392C76.9659 17.1799 76.6079 16.875 76.3428 16.4773C76.0776 16.0758 75.9451 15.5909 75.9451 15.0227C75.9451 14.5227 76.0435 14.1174 76.2405 13.8068C76.4375 13.4924 76.7007 13.2462 77.0303 13.0682C77.3598 12.8902 77.7235 12.7576 78.1212 12.6705C78.5227 12.5795 78.9261 12.5076 79.3314 12.4545C79.8617 12.3864 80.2916 12.3352 80.6212 12.3011C80.9545 12.2633 81.197 12.2008 81.3485 12.1136C81.5038 12.0265 81.5814 11.875 81.5814 11.6591V11.6136C81.5814 11.053 81.428 10.6174 81.1212 10.3068C80.8182 9.99621 80.3579 9.84091 79.7405 9.84091C79.1004 9.84091 78.5985 9.98106 78.2348 10.2614C77.8712 10.5417 77.6155 10.8409 77.4678 11.1591L76.1951 10.7045C76.4223 10.1742 76.7254 9.76136 77.1041 9.46591C77.4867 9.16667 77.9034 8.95833 78.3541 8.84091C78.8087 8.7197 79.2557 8.65909 79.6951 8.65909C79.9754 8.65909 80.2973 8.69318 80.661 8.76136C81.0284 8.82576 81.3826 8.96023 81.7235 9.16477C82.0682 9.36932 82.3541 9.67803 82.5814 10.0909C82.8087 10.5038 82.9223 11.0568 82.9223 11.75V17.5H81.5814V16.3182H81.5132C81.4223 16.5076 81.2708 16.7102 81.0587 16.9261C80.8466 17.142 80.5644 17.3258 80.2121 17.4773C79.8598 17.6288 79.4299 17.7045 78.9223 17.7045ZM79.1269 16.5C79.6572 16.5 80.1041 16.3958 80.4678 16.1875C80.8352 15.9792 81.1117 15.7102 81.2973 15.3807C81.4867 15.0511 81.5814 14.7045 81.5814 14.3409V13.1136C81.5246 13.1818 81.3996 13.2443 81.2064 13.3011C81.017 13.3542 80.7973 13.4015 80.5473 13.4432C80.3011 13.4811 80.0606 13.5152 79.8257 13.5455C79.5947 13.572 79.4072 13.5947 79.2632 13.6136C78.9148 13.6591 78.589 13.733 78.286 13.8352C77.9867 13.9337 77.7443 14.0833 77.5587 14.2841C77.3769 14.4811 77.286 14.75 77.286 15.0909C77.286 15.5568 77.4583 15.9091 77.803 16.1477C78.1515 16.3826 78.5928 16.5 79.1269 16.5ZM86.3798 14.3182L86.357 12.6591H86.6298L90.448 8.77273H92.107L88.0389 12.8864H87.9252L86.3798 14.3182ZM85.1298 17.5V5.86364H86.4707V17.5H85.1298ZM90.6752 17.5L87.2661 13.1818L88.2207 12.25L92.3798 17.5H90.6752ZM96.1611 17.7045C95.608 17.7045 95.1062 17.6004 94.6554 17.392C94.2046 17.1799 93.8467 16.875 93.5815 16.4773C93.3164 16.0758 93.1838 15.5909 93.1838 15.0227C93.1838 14.5227 93.2823 14.1174 93.4793 13.8068C93.6762 13.4924 93.9395 13.2462 94.269 13.0682C94.5986 12.8902 94.9622 12.7576 95.3599 12.6705C95.7615 12.5795 96.1649 12.5076 96.5702 12.4545C97.1005 12.3864 97.5304 12.3352 97.8599 12.3011C98.1933 12.2633 98.4357 12.2008 98.5872 12.1136C98.7425 12.0265 98.8202 11.875 98.8202 11.6591V11.6136C98.8202 11.053 98.6668 10.6174 98.3599 10.3068C98.0569 9.99621 97.5967 9.84091 96.9793 9.84091C96.3391 9.84091 95.8372 9.98106 95.4736 10.2614C95.1099 10.5417 94.8543 10.8409 94.7065 11.1591L93.4338 10.7045C93.6611 10.1742 93.9641 9.76136 94.3429 9.46591C94.7255 9.16667 95.1421 8.95833 95.5929 8.84091C96.0474 8.7197 96.4944 8.65909 96.9338 8.65909C97.2141 8.65909 97.5361 8.69318 97.8997 8.76136C98.2671 8.82576 98.6213 8.96023 98.9622 9.16477C99.3069 9.36932 99.5929 9.67803 99.8202 10.0909C100.047 10.5038 100.161 11.0568 100.161 11.75V17.5H98.8202V16.3182H98.752C98.6611 16.5076 98.5096 16.7102 98.2974 16.9261C98.0853 17.142 97.8031 17.3258 97.4509 17.4773C97.0986 17.6288 96.6687 17.7045 96.1611 17.7045ZM96.3656 16.5C96.8959 16.5 97.3429 16.3958 97.7065 16.1875C98.074 15.9792 98.3505 15.7102 98.5361 15.3807C98.7255 15.0511 98.8202 14.7045 98.8202 14.3409V13.1136C98.7634 13.1818 98.6384 13.2443 98.4452 13.3011C98.2558 13.3542 98.0361 13.4015 97.7861 13.4432C97.5399 13.4811 97.2993 13.5152 97.0645 13.5455C96.8334 13.572 96.6459 13.5947 96.502 13.6136C96.1535 13.6591 95.8277 13.733 95.5247 13.8352C95.2255 13.9337 94.983 14.0833 94.7974 14.2841C94.6156 14.4811 94.5247 14.75 94.5247 15.0909C94.5247 15.5568 94.6971 15.9091 95.0418 16.1477C95.3902 16.3826 95.8315 16.5 96.3656 16.5Z" fill="black"/>
</svg>
