<svg width="25" height="24" viewBox="0 0 25 24" fill="none" xmlns="http://www.w3.org/2000/svg">
<path d="M9.65424 7.92188C10.0423 7.92188 10.3966 7.95644 10.717 8.02484C11.0374 8.09324 11.311 8.20556 11.5392 8.3618C11.7674 8.51804 11.9446 8.7254 12.0706 8.9846C12.1966 9.2438 12.2592 9.56348 12.2592 9.94436C12.2592 10.3555 12.1656 10.6982 11.9791 10.9725C11.7926 11.2468 11.5162 11.4715 11.1511 11.6464C11.6537 11.7912 12.0288 12.0446 12.2765 12.406C12.5242 12.7675 12.648 13.2038 12.648 13.7143C12.648 14.1254 12.5681 14.4818 12.4082 14.7828C12.2484 15.0837 12.0331 15.3292 11.7624 15.5193C11.4917 15.7101 11.1835 15.8505 10.8372 15.942C10.4887 16.0334 10.1294 16.0795 9.76944 16.0788H5.81592V7.92188H9.65424ZM9.426 11.2231C9.74568 11.2231 10.0085 11.1468 10.2144 10.9948C10.4203 10.8422 10.5233 10.5952 10.5226 10.2525C10.5226 10.0624 10.488 9.9062 10.4196 9.78452C10.3512 9.66284 10.2598 9.56708 10.1453 9.49867C10.0308 9.43027 9.89976 9.38276 9.75144 9.35612C9.5988 9.32948 9.444 9.3158 9.28848 9.31652H7.61016V11.2245L9.426 11.2231ZM9.52896 14.6841C9.69816 14.6848 9.86664 14.6676 10.0315 14.633C10.1914 14.5984 10.3325 14.5416 10.4542 14.4616C10.5758 14.3817 10.673 14.273 10.7458 14.1362C10.8178 13.9994 10.8545 13.8237 10.8545 13.6106C10.8545 13.1923 10.7364 12.8928 10.5002 12.7142C10.2641 12.5349 9.9516 12.4456 9.56352 12.4456H7.61016V14.6848L9.52896 14.6841ZM14.9045 14.5128C15.1478 14.7489 15.4985 14.867 15.9557 14.867C16.2833 14.867 16.5648 14.7849 16.801 14.6215C17.0371 14.458 17.1818 14.2845 17.2351 14.1016H18.6629C18.4346 14.8101 18.084 15.3163 17.6117 15.6208C17.1394 15.9254 16.5684 16.078 15.8981 16.078C15.4337 16.078 15.0146 16.0039 14.6417 15.8556C14.2687 15.7072 13.9526 15.4956 13.6934 15.2212C13.4342 14.9469 13.2341 14.62 13.0937 14.2392C12.9533 13.8583 12.8827 13.4392 12.8827 12.9828C12.8827 12.5414 12.9547 12.1303 13.0994 11.7494C13.2442 11.3685 13.4501 11.0395 13.7165 10.7616C13.9829 10.4836 14.3011 10.2648 14.6705 10.1049C15.0398 9.94508 15.4495 9.86516 15.8988 9.86516C16.4014 9.86516 16.8391 9.96236 17.2128 10.1568C17.5858 10.3512 17.8925 10.6118 18.1322 10.9394C18.372 11.267 18.5455 11.64 18.6521 12.059C18.7586 12.478 18.7968 12.9158 18.7666 13.373H14.5056C14.5279 13.8964 14.6611 14.2773 14.9045 14.5128ZM16.7383 11.406C16.5439 11.1928 16.2487 11.0863 15.8527 11.0863C15.5935 11.0863 15.3782 11.1302 15.2076 11.2173C15.0362 11.3052 14.8994 11.4132 14.7965 11.5428C14.6935 11.6724 14.6215 11.8092 14.5798 11.9539C14.538 12.0986 14.5128 12.2282 14.5056 12.342H17.1444C17.0674 11.9316 16.932 11.6191 16.7383 11.406ZM14.2277 8.33588H17.5246V9.25028H14.2277V8.33588Z" fill="#151515"/>
</svg>
