<svg width="25" height="25" viewBox="0 0 25 25" fill="none" xmlns="http://www.w3.org/2000/svg">
<path d="M20 13.3145V11.375H18.5V13.625C18.5 13.8239 18.5791 14.0146 18.7197 14.1553L20.75 16.1855V17.375H4.25V16.1855L6.28025 14.1553C6.42091 14.0146 6.49996 13.8239 6.5 13.625V10.625C6.49791 9.5711 6.77398 8.5353 7.30032 7.62224C7.82665 6.70917 8.58463 5.95118 9.49767 5.4248C10.4107 4.89843 11.4465 4.62233 12.5004 4.62438C13.5543 4.62644 14.589 4.90657 15.5 5.4365V3.76025C14.7861 3.44414 14.0267 3.24266 13.25 3.16325V1.625H11.75V3.1625C9.90093 3.3507 8.18732 4.21784 6.94053 5.59624C5.69373 6.97464 5.00233 8.76638 5 10.625V13.3145L2.96975 15.3447C2.82909 15.4854 2.75004 15.6761 2.75 15.875V18.125C2.75 18.3239 2.82902 18.5147 2.96967 18.6553C3.11032 18.796 3.30109 18.875 3.5 18.875H8.75V19.625C8.75 20.6196 9.14509 21.5734 9.84835 22.2766C10.5516 22.9799 11.5054 23.375 12.5 23.375C13.4946 23.375 14.4484 22.9799 15.1517 22.2766C15.8549 21.5734 16.25 20.6196 16.25 19.625V18.875H21.5C21.6989 18.875 21.8897 18.796 22.0303 18.6553C22.171 18.5147 22.25 18.3239 22.25 18.125V15.875C22.25 15.6761 22.1709 15.4854 22.0303 15.3447L20 13.3145ZM14.75 19.625C14.75 20.2217 14.5129 20.794 14.091 21.216C13.669 21.6379 13.0967 21.875 12.5 21.875C11.9033 21.875 11.331 21.6379 10.909 21.216C10.4871 20.794 10.25 20.2217 10.25 19.625V18.875H14.75V19.625Z" fill="black"/>
<path d="M20 9.5C21.6569 9.5 23 8.15685 23 6.5C23 4.84315 21.6569 3.5 20 3.5C18.3431 3.5 17 4.84315 17 6.5C17 8.15685 18.3431 9.5 20 9.5Z" fill="black"/>
</svg>
