<svg width="25" height="24" viewBox="0 0 25 24" fill="none" xmlns="http://www.w3.org/2000/svg">
<path d="M18.5341 6.24171C17.3869 5.7153 16.1566 5.32746 14.8703 5.10533C14.8469 5.10105 14.8235 5.11176 14.8114 5.13319C14.6532 5.4146 14.4779 5.78172 14.3552 6.07028C12.9717 5.86315 11.5953 5.86315 10.2401 6.07028C10.1174 5.77531 9.93575 5.4146 9.77682 5.13319C9.76475 5.11247 9.74135 5.10176 9.71792 5.10533C8.43232 5.32675 7.20206 5.71459 6.05409 6.24171C6.04415 6.24599 6.03563 6.25314 6.02998 6.26242C3.69643 9.74869 3.05717 13.1493 3.37077 16.5077C3.37219 16.5241 3.38141 16.5398 3.39419 16.5498C4.93379 17.6805 6.42517 18.3669 7.88885 18.8219C7.91227 18.829 7.93709 18.8204 7.952 18.8011C8.29823 18.3283 8.60687 17.8298 8.87149 17.3055C8.88711 17.2748 8.8722 17.2384 8.84028 17.2262C8.35074 17.0405 7.88459 16.8141 7.43618 16.557C7.40072 16.5363 7.39788 16.4855 7.43051 16.4612C7.52487 16.3905 7.61925 16.317 7.70935 16.2427C7.72565 16.2291 7.74837 16.2263 7.76754 16.2348C10.7133 17.5798 13.9025 17.5798 16.8136 16.2348C16.8328 16.2255 16.8555 16.2284 16.8725 16.242C16.9626 16.3163 17.057 16.3905 17.1521 16.4612C17.1847 16.4855 17.1825 16.5363 17.1471 16.557C16.6987 16.8191 16.2325 17.0405 15.7423 17.2255C15.7104 17.2377 15.6962 17.2748 15.7118 17.3055C15.9821 17.829 16.2907 18.3276 16.6306 18.8004C16.6448 18.8204 16.6703 18.829 16.6937 18.8219C18.1645 18.3669 19.6558 17.6805 21.1955 16.5498C21.2089 16.5398 21.2175 16.5248 21.2189 16.5084C21.5942 12.6257 20.5903 9.25301 18.5575 6.26313C18.5526 6.25314 18.5441 6.24599 18.5341 6.24171ZM9.3114 14.4628C8.42451 14.4628 7.69374 13.6485 7.69374 12.6486C7.69374 11.6486 8.41034 10.8344 9.3114 10.8344C10.2195 10.8344 10.9432 11.6558 10.929 12.6486C10.929 13.6485 10.2124 14.4628 9.3114 14.4628ZM15.2924 14.4628C14.4056 14.4628 13.6748 13.6485 13.6748 12.6486C13.6748 11.6486 14.3914 10.8344 15.2924 10.8344C16.2006 10.8344 16.9243 11.6558 16.9101 12.6486C16.9101 13.6485 16.2006 14.4628 15.2924 14.4628Z" fill="#5865F2"/>
</svg>
