<svg width="25" height="24" viewBox="0 0 25 24" fill="none" xmlns="http://www.w3.org/2000/svg">
<path d="M12.2964 3.59766C16.9371 3.59766 20.6917 7.35234 20.6917 11.9859C20.6917 16.6195 16.9371 20.3813 12.2964 20.3813C7.65581 20.3813 3.90112 16.6266 3.90112 11.993C3.90112 7.35938 7.65581 3.59766 12.2964 3.59766Z" fill="#E74D89"/>
<path d="M12.2964 20.9789C7.33232 20.9789 3.29639 16.95 3.29639 11.993C3.29639 7.02891 7.33232 3 12.2964 3C17.2604 3 21.2964 7.02891 21.2964 11.9859C21.2964 16.943 17.2604 20.9789 12.2964 20.9789ZM19.8831 13.2164C19.6229 13.132 17.5065 12.5063 15.0948 12.8859C16.1003 15.6422 16.5081 17.8922 16.5854 18.3562C18.3151 17.1961 19.5456 15.3539 19.8831 13.2164ZM15.2987 19.0664C15.1862 18.3914 14.7362 16.043 13.6604 13.2445C13.6464 13.2516 13.6253 13.2586 13.6112 13.2586C9.27295 14.7703 7.71904 17.7727 7.57842 18.0539C8.8792 19.0664 10.5175 19.6711 12.2964 19.6711C13.3581 19.6781 14.3776 19.4602 15.2987 19.0664ZM6.58701 17.1328C6.76279 16.8375 8.87217 13.35 12.8378 12.0633C12.9362 12.0281 13.0417 12 13.1401 11.9719C12.9503 11.5359 12.7394 11.1 12.5144 10.6711C8.67529 11.8172 4.94873 11.768 4.61123 11.7609C4.61123 11.8383 4.6042 11.9156 4.6042 11.993C4.61123 13.9688 5.35654 15.7688 6.58701 17.1328ZM4.77295 10.425C5.11748 10.432 8.28154 10.4461 11.8815 9.48984C10.6089 7.22578 9.23076 5.32734 9.03389 5.05313C6.87529 6.06562 5.27217 8.04844 4.77295 10.425ZM10.4964 4.53281C10.7073 4.81406 12.1065 6.7125 13.3651 9.02578C16.1003 7.99922 17.2534 6.45234 17.394 6.25547C16.037 5.05312 14.2511 4.32187 12.2964 4.32187C11.6776 4.32187 11.0729 4.39922 10.4964 4.53281ZM18.2448 7.14141C18.0831 7.35938 16.7964 9.01172 13.9558 10.1719C14.1315 10.5375 14.3073 10.9102 14.469 11.2828C14.5253 11.4164 14.5815 11.55 14.6378 11.6766C17.1972 11.3531 19.7354 11.8734 19.9886 11.9227C19.9675 10.1156 19.3206 8.44922 18.2448 7.14141Z" fill="#B2215A"/>
</svg>
