<svg width="25" height="24" viewBox="0 0 25 24" fill="none" xmlns="http://www.w3.org/2000/svg">
<path d="M22.2964 12C22.2964 6.47757 17.8188 2 12.2964 2C6.77396 2 2.29639 6.47757 2.29639 12C2.29639 16.9909 5.95269 21.1281 10.734 21.8791V14.8913H8.19429V12H10.734V9.79637C10.734 7.2904 12.2275 5.90522 14.5113 5.90522C15.6053 5.90522 16.7501 6.10069 16.7501 6.10069V8.56167H15.4886C14.2469 8.56167 13.8588 9.3323 13.8588 10.124V12H16.6319L16.189 14.8913H13.8588V21.8791C18.6401 21.1295 22.2964 16.9923 22.2964 12Z" fill="#1977F3"/>
<path d="M16.1895 14.8912L16.6325 11.9999H13.8593V10.124C13.8593 9.33364 14.246 8.5616 15.4892 8.5616H16.7506V6.10062C16.7506 6.10062 15.6059 5.90515 14.5118 5.90515C12.228 5.90515 10.7346 7.28892 10.7346 9.79631V11.9999H8.19482V14.8912H10.7346V21.879C11.2436 21.9592 11.7654 21.9999 12.2969 21.9999C12.8285 21.9999 13.3502 21.9578 13.8593 21.879V14.8912H16.1895Z" fill="#FEFEFE"/>
</svg>
