<svg width="25" height="24" viewBox="0 0 25 24" fill="none" xmlns="http://www.w3.org/2000/svg">
<path d="M9.29241 21C10.9455 21 12.2872 19.656 12.2872 18V15H9.29241C7.63928 15 6.29761 16.344 6.29761 18C6.29761 19.656 7.63928 21 9.29241 21Z" fill="#0ACF83"/>
<path d="M6.29761 12C6.29761 10.344 7.63928 9 9.29241 9H12.2872V15H9.29241C7.63928 15 6.29761 13.656 6.29761 12Z" fill="#A259FF"/>
<path d="M6.29761 6C6.29761 4.344 7.63928 3 9.29241 3H12.2872V9H9.29241C7.63928 9 6.29761 7.656 6.29761 6Z" fill="#F24E1E"/>
<path d="M12.2876 3H15.2824C16.9355 3 18.2772 4.344 18.2772 6C18.2772 7.656 16.9355 9 15.2824 9H12.2876V3Z" fill="#FF7262"/>
<path d="M18.2772 12C18.2772 13.656 16.9355 15 15.2824 15C13.6293 15 12.2876 13.656 12.2876 12C12.2876 10.344 13.6293 9 15.2824 9C16.9355 9 18.2772 10.344 18.2772 12Z" fill="#1ABCFE"/>
</svg>
