<svg width="25" height="24" viewBox="0 0 25 24" fill="none" xmlns="http://www.w3.org/2000/svg">
<path d="M19.2794 3H5.31335C4.20844 3 3.29639 3.91205 3.29639 5.01696V18.983C3.29639 20.0879 4.20844 21 5.31335 21H19.2794C20.3843 21 21.2964 20.0879 21.2964 18.983V5.01696C21.2964 3.91205 20.3843 3 19.2794 3ZM17.4553 14.4228C17.4553 14.5915 17.3107 14.6638 17.1419 14.7362C16.4709 15.0254 15.7517 15.2866 14.9803 15.2866C13.8995 15.2866 13.3973 14.6156 12.0995 14.6156C11.1634 14.6156 10.179 14.9531 9.38746 15.3107C9.33924 15.3348 9.29103 15.3348 9.24282 15.3589V17.183C9.24282 17.2554 9.24282 17.3277 9.21871 17.3759V17.4241C9.12228 17.7616 8.80889 17.9987 8.4513 17.9987C7.99728 17.9987 7.63567 17.6371 7.63567 17.183V8.4C7.32228 8.15893 7.10933 7.77723 7.10933 7.3433C7.10933 6.6 7.70799 5.99732 8.45532 5.99732C9.19862 5.99732 9.8013 6.59598 9.8013 7.3433C9.8013 7.77723 9.60844 8.15893 9.27496 8.4V9.1433C9.34728 9.1192 9.4196 9.09509 9.49192 9.04688C10.2352 8.73348 11.1232 8.47232 11.9629 8.47232C12.875 8.47232 13.5942 8.71339 14.4098 9.02277C14.5785 9.09509 14.7473 9.1192 14.9361 9.1192C15.8482 9.1192 16.8567 8.47232 17.0977 8.47232C17.2906 8.47232 17.4593 8.61696 17.4593 8.78571V14.4228H17.4553Z" fill="#339AF0"/>
</svg>
