<svg width="25" height="24" viewBox="0 0 25 24" fill="none" xmlns="http://www.w3.org/2000/svg">
<path fill-rule="evenodd" clip-rule="evenodd" d="M17.632 7.939C18.3357 7.939 18.9062 7.36849 18.9062 6.66477C18.9062 5.96106 18.3357 5.39055 17.632 5.39055C16.9282 5.39055 16.3577 5.96106 16.3577 6.66477C16.3577 7.36849 16.9282 7.939 17.632 7.939ZM8.60498 7.55004L12.514 3.64103C12.8122 3.34284 13.2263 3.16065 13.6818 3.16065H19.4796C19.6973 3.15989 19.9131 3.20222 20.1144 3.2852C20.3157 3.36817 20.4986 3.49016 20.6526 3.64413C20.8066 3.7981 20.9286 3.98101 21.0116 4.18233C21.0945 4.38365 21.1369 4.59939 21.1361 4.81714V10.6149C21.1361 11.0704 20.9539 11.4846 20.6474 11.7827L16.7444 15.6895L8.60498 7.55004Z" fill="#4285F4"/>
<path fill-rule="evenodd" clip-rule="evenodd" d="M16.7439 15.6896L11.9268 20.5113C11.6203 20.8095 11.2062 21 10.7507 21C10.2951 21 9.88098 20.8095 9.58282 20.5113L3.78503 14.7136C3.47857 14.4154 3.29639 14.0013 3.29639 13.5458C3.29639 13.0819 3.48687 12.6678 3.78503 12.3697L8.60452 7.55017L16.7439 15.6896Z" fill="#34A853"/>
<path fill-rule="evenodd" clip-rule="evenodd" d="M6.59855 17.5271L3.78503 14.7135C3.47857 14.4155 3.29639 14.0013 3.29639 13.5458C3.29639 13.0819 3.48687 12.6678 3.78503 12.3697L8.60452 7.55017L12.59 11.5357L6.59855 17.5271Z" fill="#FBBC05"/>
<path fill-rule="evenodd" clip-rule="evenodd" d="M20.5641 3.56188C20.2628 3.30176 19.8776 3.15927 19.4796 3.16065H13.6818C13.2263 3.16065 12.8122 3.34284 12.514 3.64103L8.60498 7.55004L12.5904 11.5356L16.6496 7.47637C16.4606 7.24821 16.3573 6.96108 16.3578 6.66477C16.3578 5.96106 16.9282 5.39055 17.632 5.39055C17.9283 5.39009 18.2154 5.49334 18.4436 5.6824L20.5641 3.56188Z" fill="#EA4335"/>
<path d="M12.5877 14.5757C14.0171 14.5757 15.1759 13.4169 15.1759 11.9874C15.1759 10.558 14.0171 9.39917 12.5877 9.39917C11.1582 9.39917 9.99939 10.558 9.99939 11.9874C9.99939 13.4169 11.1582 14.5757 12.5877 14.5757Z" fill="#4285F4"/>
<path fill-rule="evenodd" clip-rule="evenodd" d="M16.1137 11.2261H12.6713V12.703H14.6528C14.4681 13.6413 13.6957 14.18 12.6713 14.18C11.4623 14.18 10.4883 13.1722 10.4883 11.9211C10.4883 10.67 11.4623 9.66223 12.6713 9.66223C13.1919 9.66223 13.6621 9.85338 14.0315 10.1661L15.1062 9.05406C14.4513 8.46329 13.6117 8.09839 12.6713 8.09839C10.6227 8.09839 8.97705 9.80125 8.97705 11.9211C8.97705 14.0409 10.6227 15.7438 12.6713 15.7438C14.5185 15.7438 16.1977 14.3537 16.1977 11.9211C16.1977 11.6952 16.1641 11.4519 16.1137 11.2261Z" fill="white"/>
</svg>
