<svg width="25" height="24" viewBox="0 0 25 24" fill="none" xmlns="http://www.w3.org/2000/svg">
<path d="M3.71098 15.7093L9.69152 5.4707C10.4512 5.91794 14.2819 8.03796 14.9006 8.4411L8.92004 18.6803C8.26595 19.5443 2.88235 17.0206 3.71098 15.7087V15.7093Z" fill="#FBBC04"/>
<path d="M20.894 15.709L14.9135 5.47104C14.0774 4.07963 12.2767 3.57401 10.7977 4.39581C9.31871 5.2176 8.86837 6.98791 9.70445 8.44143L15.685 18.6806C16.5211 20.0714 18.3218 20.5771 19.8008 19.7553C21.2152 18.9335 21.7301 17.1004 20.894 15.7103V15.709Z" fill="#4285F4"/>
<path d="M6.29846 20.151C7.95646 20.151 9.30053 18.8403 9.30053 17.2234C9.30053 15.6066 7.95646 14.2959 6.29846 14.2959C4.64046 14.2959 3.29639 15.6066 3.29639 17.2234C3.29639 18.8403 4.64046 20.151 6.29846 20.151Z" fill="#34A853"/>
</svg>
