<svg width="25" height="24" viewBox="0 0 25 24" fill="none" xmlns="http://www.w3.org/2000/svg">
<path d="M14.6733 8.3705C15.4876 6.97678 15.0041 5.19557 13.5936 4.39057C12.1825 3.58671 10.3788 4.06324 9.56454 5.45697C9.52865 5.51941 9.49489 5.58307 9.46333 5.64781L6.71057 10.357C6.64967 10.4506 6.59331 10.5471 6.5417 10.6462L3.68311 15.5791L8.79132 18.4424L11.6354 13.551C11.6974 13.458 11.7538 13.3615 11.8043 13.2618L14.5571 8.55208C14.597 8.4931 14.6369 8.43296 14.6733 8.3705Z" fill="#FBBC04"/>
<path d="M8.81471 18.4273C8.00508 19.8436 6.17877 20.3646 4.77636 19.5475C3.37338 18.7298 2.87546 16.9567 3.68567 15.541C4.49588 14.1253 6.30599 13.6019 7.70897 14.419C9.11195 15.2368 9.62433 17.0116 8.8147 18.4267" fill="#34A853"/>
<path d="M19.8379 9.30272C18.4436 8.49915 16.6619 8.97501 15.8539 10.3668L12.9375 15.4062C12.134 16.7952 12.6086 18.5725 13.9975 19.376C14.0001 19.3775 14.0026 19.3789 14.0051 19.3804C15.3997 20.1842 17.1818 19.708 17.9896 18.3157L20.9055 13.2769C21.7089 11.8875 21.2338 10.1099 19.8444 9.30648C19.8423 9.30522 19.8401 9.30396 19.8379 9.30272Z" fill="#4285F4"/>
</svg>
