<svg width="25" height="24" viewBox="0 0 25 24" fill="none" xmlns="http://www.w3.org/2000/svg">
<path d="M13.6919 4.0025C13.1191 3.82178 12.5054 3.7229 11.8711 3.7229C10.0197 3.7229 8.36255 4.55828 7.25439 5.87443L10.1015 8.26805L13.6919 4.0025Z" fill="#1A73E8"/>
<path d="M7.25403 5.87451C6.34123 6.95867 5.84122 8.33069 5.84241 9.74794C5.84241 10.88 6.06745 11.8006 6.43911 12.6223L10.1011 8.26813L7.25403 5.87451Z" fill="#EA4335"/>
<path d="M11.8712 7.4465C12.3107 7.44691 12.741 7.5729 13.1113 7.80964C13.4817 8.04638 13.7766 8.38401 13.9615 8.78277C14.1464 9.18153 14.2134 9.62482 14.1548 10.0604C14.0962 10.496 13.9143 10.9058 13.6306 11.2415L17.2176 6.97596C16.4814 5.55743 15.212 4.48923 13.6886 4.0061L10.105 8.27165C10.3209 8.01306 10.591 7.80511 10.8963 7.66252C11.2015 7.51992 11.5343 7.44618 11.8712 7.4465Z" fill="#4285F4"/>
<path d="M11.8708 12.0563C10.5989 12.0563 9.56579 11.0232 9.56579 9.75136C9.5643 9.20983 9.75523 8.68537 10.1045 8.27155L6.43909 12.6257C7.06647 14.0135 8.10644 15.1285 9.17709 16.5333L13.6302 11.2414C13.4138 11.497 13.1443 11.7024 12.8404 11.8431C12.5366 11.9839 12.2056 12.0566 11.8708 12.0563Z" fill="#FBBC04"/>
<path d="M13.5412 17.9755C15.5529 14.8318 17.8954 13.4031 17.8954 9.74791C17.8954 8.74545 17.6499 7.80096 17.2169 6.96899L9.18018 16.5332C9.52115 16.9799 9.86553 17.4539 10.1997 17.979C11.4204 19.8679 11.0828 21 11.8704 21C12.6581 21 12.3205 19.8645 13.5412 17.9755Z" fill="#34A853"/>
</svg>
