<svg width="25" height="24" viewBox="0 0 25 24" fill="none" xmlns="http://www.w3.org/2000/svg">
<path d="M20.5219 18.7141C20.5253 19.354 20.2538 19.9647 19.7764 20.3909C19.2991 20.8172 18.6617 21.0181 18.0262 20.9426C16.8826 20.7734 16.0446 19.7782 16.0725 18.6225V5.33526C16.0448 4.17829 16.8849 3.18263 18.03 3.01515C18.6649 2.94084 19.3012 3.14226 19.7777 3.56839C20.2542 3.99452 20.5251 4.60446 20.5219 5.24368V18.7141Z" fill="#F9AB00"/>
<path d="M6.5211 16.5123C7.74977 16.5123 8.74581 17.5083 8.74581 18.737C8.74581 19.9656 7.74977 20.9617 6.5211 20.9617C5.29242 20.9617 4.29639 19.9656 4.29639 18.737C4.29639 17.5083 5.29242 16.5123 6.5211 16.5123ZM12.3748 9.76943C11.1403 9.8371 10.1825 10.8726 10.2111 12.1086V18.0844C10.2111 19.7062 10.9247 20.6907 11.9703 20.9006C12.6267 21.0337 13.3081 20.8644 13.826 20.4398C14.3439 20.0151 14.6434 19.38 14.6415 18.7103V12.0056C14.6426 11.4069 14.4031 10.8328 13.9769 10.4123C13.5507 9.99186 12.9734 9.76022 12.3748 9.76943Z" fill="#E37400"/>
</svg>
