<svg width="25" height="24" viewBox="0 0 25 24" fill="none" xmlns="http://www.w3.org/2000/svg">
<path d="M7.20417 5.03649C8.21573 4.9053 9.2668 5.13047 10.1326 5.6702C10.6213 5.95828 11.0122 6.37526 11.4131 6.76998C11.7038 7.05462 11.9915 7.3427 12.2831 7.62657L12.2938 7.6561C12.076 7.87051 11.8289 8.29922 11.5525 8.94225C10.9727 9.14621 10.577 9.3521 10.3654 9.55992C9.89322 9.10535 9.43635 8.63467 8.96606 8.1778C8.51878 7.75891 7.84287 7.59012 7.25711 7.78231C6.59003 7.96989 6.08099 8.60782 6.0457 9.30022C6.02268 9.66042 6.11666 10.0264 6.31153 10.3302C6.43275 10.5258 6.60998 10.675 6.76879 10.8385C7.15047 11.2221 7.54136 11.5968 7.91729 11.9858C7.71654 12.1831 7.47883 12.565 7.20417 13.1315C6.61994 13.4084 6.21461 13.6602 5.98816 13.8869C5.48065 13.4097 4.9954 12.9068 4.49249 12.4243C3.89369 11.8013 3.49321 10.9931 3.35512 10.1403C3.20321 9.22542 3.34744 8.26219 3.77094 7.4363C4.12654 6.7439 4.66473 6.14241 5.31954 5.72007C5.8888 5.36217 6.53364 5.11129 7.20417 5.03649Z" fill="#EA4335"/>
<path d="M12.3023 16.3048L16.6903 11.98L17.8767 12.6847L18.6191 13.8911L12.3023 20.1404L7.92041 15.8053L8.76128 14.622L9.86105 13.8896L12.3023 16.3048Z" fill="#34A853"/>
<path d="M10.3689 9.56421L11.4726 10.1612L12.3019 11.4807L7.91999 15.8054L5.98779 13.887L10.3689 9.56421Z" fill="#FBBC05"/>
<path d="M17.5935 5.06305C18.8794 5.28094 20.062 6.08382 20.7103 7.21966C21.4487 8.46752 21.489 10.0867 20.8338 11.3779C20.5622 11.9326 20.1476 12.4006 19.706 12.826C19.3397 13.1762 18.9918 13.5499 18.6193 13.8913C17.9748 13.256 17.3296 12.6212 16.6905 11.9802C17.1459 11.5202 17.6085 11.068 18.0654 10.6095C18.36 10.3119 18.5445 9.90372 18.5595 9.48368C18.5798 9.00686 18.3914 8.52314 18.0458 8.19247C17.6937 7.85912 17.2004 7.66963 16.7147 7.7099C16.297 7.72985 15.8938 7.91935 15.5992 8.21472C14.4998 9.30262 13.4031 10.3936 12.3025 11.4807C11.6554 10.8447 11.0075 10.2095 10.3696 9.56423C10.3688 9.56308 10.3669 9.56117 10.3657 9.56001C11.0102 8.92707 11.6504 8.28991 12.2941 7.6562C12.7605 7.19664 13.2255 6.73517 13.6923 6.27523C14.2969 5.66799 15.094 5.2702 15.9268 5.0876C16.4757 4.98441 17.0419 4.97291 17.5935 5.06305Z" fill="#4285F4"/>
</svg>
