<svg width="25" height="24" viewBox="0 0 25 24" fill="none" xmlns="http://www.w3.org/2000/svg">
<path d="M12.2995 3.00366C12.3487 3.03185 12.3909 3.07414 12.4296 3.11643C13.8827 4.57882 15.3392 6.04122 16.7887 7.50715C15.8739 8.40925 14.9733 9.32546 14.0656 10.2311C13.7243 10.5764 13.376 10.9147 13.0383 11.2671C12.785 10.6539 12.5422 10.0373 12.2995 9.4206C12.2995 8.77926 12.303 8.13792 12.2995 7.49305C12.296 5.99894 12.2924 4.5013 12.2995 3.00366Z" fill="#DD4B39" stroke="#DD4B39" stroke-width="0.459323"/>
<path d="M7.79346 7.49316H12.3003C12.3038 8.13803 12.3003 8.77937 12.3003 9.42071C12.0505 10.0268 11.8077 10.6364 11.5685 11.2496C11.4911 11.2073 11.4348 11.1439 11.375 11.0804L7.80753 7.50726L7.79346 7.49316Z" fill="#EF851C" stroke="#EF851C" stroke-width="0.459323"/>
<path d="M16.7891 7.50721L16.8032 7.49664C16.7997 8.9978 16.7997 10.5025 16.8032 12.0037H14.8647C14.2595 11.7499 13.6473 11.5174 13.0387 11.2672C13.3764 10.9148 13.7247 10.5765 14.066 10.2312C14.9738 9.32552 15.8744 8.40932 16.7891 7.50721Z" fill="#7E3794" stroke="#7E3794" stroke-width="0.459323"/>
<path d="M7.05775 8.25074C7.31106 8.00759 7.54678 7.74682 7.80713 7.5072L11.3746 11.0804C11.4344 11.1438 11.4907 11.2072 11.5681 11.2495C11.4872 11.3094 11.3852 11.3306 11.2937 11.3729C10.7729 11.5843 10.2452 11.7816 9.72807 12.0072C9.0842 12.0001 8.44037 12.0036 7.79657 12.0036C6.29781 12.0001 4.79905 12.0107 3.30029 12.0001C4.54926 10.7456 5.80526 9.49818 7.05775 8.25074Z" fill="#FFBB1B" stroke="#FFBB1B" stroke-width="0.459323"/>
<path d="M7.79688 12.0036C8.44071 12.0036 9.08455 12 9.72838 12.0071C10.337 12.2573 10.9457 12.4934 11.5543 12.7401C10.5552 13.7549 9.54543 14.7557 8.54274 15.767C8.28943 16.0067 8.06074 16.271 7.79336 16.4965C7.79336 14.9988 7.78984 13.5012 7.79688 12.0036Z" fill="#1A8763" stroke="#1A8763" stroke-width="0.459323"/>
<path d="M14.8647 12.0037H16.8032C18.2985 12.0072 19.7972 12.0001 21.2925 12.0072C20.332 12.9833 19.3574 13.9488 18.3935 14.9179C17.8587 15.45 17.331 15.9891 16.7962 16.5142C15.6 15.302 14.3862 14.1039 13.1865 12.8917C13.1373 12.8388 13.0845 12.793 13.0247 12.7578C13.1267 12.6943 13.2393 12.6626 13.3483 12.6168C13.855 12.4124 14.3615 12.2151 14.8647 12.0037Z" fill="#427FED" stroke="#427FED" stroke-width="0.459323"/>
<path d="M11.5544 12.7402C11.8113 13.3533 12.0435 13.9736 12.3003 14.5867C12.2968 15.228 12.3003 15.8729 12.2968 16.5142V19.6152C12.2897 20.0769 12.3073 20.5385 12.2897 20.9966C12.2158 20.9614 12.1701 20.8944 12.1103 20.838C10.6714 19.3897 9.23593 17.9414 7.79346 16.4967C8.06084 16.2711 8.28952 16.0068 8.54284 15.7672C9.54553 14.7559 10.5553 13.7551 11.5544 12.7402Z" fill="#65B045" stroke="#65B045" stroke-width="0.459323"/>
<path d="M13.0246 12.7578C13.0844 12.793 13.1372 12.8388 13.1865 12.8917C14.3862 14.1039 15.6 15.302 16.7962 16.5142C15.2939 16.5107 13.7951 16.5177 12.2964 16.5142C12.2999 15.8728 12.2964 15.228 12.2999 14.5866C12.5356 13.977 12.7889 13.3709 13.0246 12.7578Z" fill="#43459D" stroke="#43459D" stroke-width="0.459323"/>
</svg>
