<svg width="25" height="24" viewBox="0 0 25 24" fill="none" xmlns="http://www.w3.org/2000/svg">
<path d="M14.7184 8.99192H15.2676L16.8325 7.42601L16.9094 6.76159C13.9978 4.19001 9.5531 4.4671 6.98329 7.38071C6.26878 8.19009 5.75044 9.15273 5.46826 10.1947C5.64255 10.1229 5.8357 10.1116 6.01753 10.1614L9.14643 9.64501C9.14643 9.64501 9.30563 9.3815 9.38787 9.39811C10.7799 7.86845 13.1226 7.69027 14.7297 8.99192H14.7184Z" fill="#EA4335"/>
<path d="M19.0611 10.1946C18.7012 8.86957 17.9633 7.67815 16.9364 6.76685L14.7408 8.96395C15.6681 9.72198 16.1963 10.8643 16.1736 12.0625V12.4529C17.2533 12.4529 18.1278 13.3287 18.1278 14.4084C18.1278 15.4888 17.2526 16.3639 16.1736 16.3639H12.2646L11.8745 16.7595V19.1053L12.2646 19.4957H16.1736C18.4145 19.513 20.4026 18.0596 21.068 15.9184C21.732 13.7764 20.9171 11.451 19.0611 10.1946Z" fill="#4285F4"/>
<path d="M8.35005 19.4737H12.2591V16.3427H8.35005C8.07164 16.3427 7.79625 16.283 7.54274 16.1667L6.99347 16.3366L5.41808 17.9025L5.28076 18.4522C6.16428 19.1196 7.24245 19.4783 8.35005 19.4737Z" fill="#34A853"/>
<path d="M8.34964 9.3157C6.1782 9.32854 4.25499 10.72 3.56236 12.779C2.86974 14.8379 3.5601 17.1105 5.2811 18.4348L7.54836 16.166C6.5645 15.7213 6.12765 14.5631 6.57205 13.5785C7.01644 12.594 8.17384 12.1568 9.1577 12.6015C9.59078 12.7978 9.93785 13.1451 10.134 13.5785L12.4013 11.3097C11.4363 10.0481 9.9371 9.31042 8.34964 9.3157Z" fill="#FBBC05"/>
</svg>
