<svg width="25" height="24" viewBox="0 0 25 24" fill="none" xmlns="http://www.w3.org/2000/svg">
<path d="M12.8041 8.89932C14.2296 8.89932 15.3852 7.74373 15.3852 6.31824C15.3852 4.89274 14.2296 3.73715 12.8041 3.73715C11.3786 3.73715 10.223 4.89274 10.223 6.31824C10.223 7.74373 11.3786 8.89932 12.8041 8.89932Z" fill="#7B83EB"/>
<path d="M18.6112 9.08354C19.6802 9.08354 20.5469 8.21691 20.5469 7.14786C20.5469 6.07882 19.6802 5.21219 18.6112 5.21219C17.5422 5.21219 16.6755 6.07882 16.6755 7.14786C16.6755 8.21691 17.5422 9.08354 18.6112 9.08354Z" fill="#5059C9"/>
<path d="M20.2698 9.63672H15.9223C15.8284 9.63672 15.7384 9.67401 15.672 9.74039C15.6056 9.80677 15.5684 9.8968 15.5684 9.99067V14.4759C15.5564 15.125 15.7678 15.7586 16.1672 16.2705C16.5666 16.7823 17.1297 17.1414 17.7623 17.2876C18.1652 17.3721 18.5819 17.3658 18.982 17.269C19.3821 17.1721 19.7556 16.9873 20.0753 16.7279C20.3949 16.4685 20.6527 16.1411 20.8299 15.7696C21.0071 15.398 21.0991 14.9915 21.0994 14.5799V10.4663C21.0994 10.2463 21.012 10.0353 20.8564 9.8797C20.7009 9.72412 20.4898 9.63672 20.2698 9.63672Z" fill="#5059C9"/>
<path d="M17.2282 10.4663V15.7203C17.2288 16.6939 16.9079 17.6406 16.3154 18.4132C15.723 19.1859 14.892 19.7414 13.9516 19.9935C13.0111 20.2457 12.0137 20.1803 11.1142 19.8077C10.2147 19.435 9.46329 18.7758 8.97669 17.9325C8.87027 17.7556 8.77781 17.5707 8.70016 17.3794C8.62778 17.1991 8.56682 17.0144 8.51766 16.8264C8.42648 16.4647 8.38005 16.0932 8.3794 15.7203V10.4663C8.37925 10.3573 8.40061 10.2494 8.44225 10.1487C8.48389 10.0479 8.54499 9.95643 8.62205 9.87937C8.69911 9.80231 8.79062 9.74121 8.89133 9.69957C8.99205 9.65793 9.09999 9.63657 9.20897 9.63672H16.3986C16.5076 9.63657 16.6156 9.65793 16.7163 9.69957C16.817 9.74121 16.9085 9.80231 16.9856 9.87937C17.0626 9.95643 17.1237 10.0479 17.1654 10.1487C17.207 10.2494 17.2284 10.3573 17.2282 10.4663Z" fill="#7B83EB"/>
<path d="M4.13907 7.42432H11.5134C11.709 7.42432 11.8965 7.50199 12.0347 7.64024C12.173 7.7785 12.2507 7.96601 12.2507 8.16153V15.5359C12.2507 15.7314 12.173 15.9189 12.0347 16.0572C11.8965 16.1954 11.709 16.2731 11.5134 16.2731H4.13907C3.94355 16.2731 3.75604 16.1954 3.61778 16.0572C3.47953 15.9189 3.40186 15.7314 3.40186 15.5359V8.16153C3.40186 7.96601 3.47953 7.7785 3.61778 7.64024C3.75604 7.50199 3.94355 7.42432 4.13907 7.42432Z" fill="#4B53BC"/>
<path d="M10.0278 10.1758H8.37415V14.6113H7.28906V10.1758H5.62549V9.0863H10.0278V10.1758Z" fill="white"/>
</svg>
