<svg width="25" height="24" viewBox="0 0 25 24" fill="none" xmlns="http://www.w3.org/2000/svg">
<path d="M19.6443 7.21498C17.8689 6.19012 15.5987 6.79911 14.5727 8.57451L11.9864 13.0547C11.2381 14.3484 12.2015 14.8004 13.2757 15.4445L15.7643 16.8809C16.607 17.367 17.6835 17.0784 18.1696 16.2368L20.8283 11.6326C21.7214 10.0854 21.1914 8.10818 19.6443 7.21498Z" fill="#EA4335"/>
<path d="M16.7183 9.06932L14.2297 7.63301C12.8559 6.87041 12.078 6.81993 11.5139 7.7164L7.84359 14.0729C6.81872 15.8472 7.42881 18.1164 9.2031 19.139C10.7503 20.0322 12.7276 19.5022 13.6207 17.9551L17.3613 11.4756C17.8496 10.633 17.561 9.55543 16.7183 9.06932Z" fill="#FBBC04"/>
<path d="M17.197 5.8017L15.449 4.79221C13.5156 3.67628 11.0435 4.33794 9.92755 6.27134L6.59951 12.0353C6.10793 12.8857 6.39981 13.9742 7.25021 14.4647L9.20775 15.5949C10.1744 16.1534 11.4099 15.822 11.9685 14.8553L15.7705 8.27058C16.5584 6.90666 18.3019 6.43922 19.6658 7.22706L17.197 5.8017Z" fill="#34A853"/>
<path d="M10.4003 7.92047L8.51079 6.83198C7.66807 6.34698 6.59166 6.63447 6.10557 7.47498L3.8386 11.3923C2.72267 13.3202 3.38433 15.7868 5.31772 16.8995L6.75625 17.7279L8.50091 18.733L9.25804 19.1686C7.91387 18.2689 7.48703 16.466 8.30888 15.0462L8.89592 14.0323L11.0455 10.318C11.5305 9.47972 11.2419 8.40546 10.4003 7.92047Z" fill="#4285F4"/>
</svg>
