<svg width="25" height="24" viewBox="0 0 25 24" fill="none" xmlns="http://www.w3.org/2000/svg">
<path d="M7.28555 13.8775L6.659 16.2165L4.36896 16.2649C3.68458 14.9956 3.29639 13.5432 3.29639 11.9999C3.29639 10.5075 3.65934 9.10009 4.30269 7.86087H4.30319L6.34196 8.23465L7.23507 10.2612C7.04814 10.8061 6.94626 11.3911 6.94626 11.9999C6.94633 12.6605 7.066 13.2935 7.28555 13.8775Z" fill="#FBBB00"/>
<path d="M21.1395 10.3184C21.2428 10.8628 21.2967 11.425 21.2967 11.9997C21.2967 12.644 21.229 13.2725 21.0999 13.8788C20.6618 15.9419 19.517 17.7433 17.9312 19.0182L17.9307 19.0177L15.3627 18.8866L14.9993 16.6178C16.0516 16.0007 16.874 15.0349 17.3071 13.8788H12.4946V10.3184H17.3774H21.1395Z" fill="#518EF8"/>
<path d="M17.9299 19.0183L17.9304 19.0188C16.3881 20.2585 14.4288 21.0002 12.296 21.0002C8.86863 21.0002 5.88877 19.0845 4.36865 16.2654L7.28524 13.8779C8.04528 15.9064 10.002 17.3503 12.296 17.3503C13.2821 17.3503 14.2058 17.0838 14.9985 16.6185L17.9299 19.0183Z" fill="#28B446"/>
<path d="M18.0405 5.07196L15.1249 7.45892C14.3046 6.94613 13.3348 6.64991 12.2959 6.64991C9.94997 6.64991 7.95662 8.16011 7.23465 10.2613L4.30274 7.86096H4.30225C5.80011 4.97307 8.81755 3 12.2959 3C14.4796 3 16.4819 3.77786 18.0405 5.07196Z" fill="#F14336"/>
</svg>
