<svg width="25" height="24" viewBox="0 0 25 24" fill="none" xmlns="http://www.w3.org/2000/svg">
<path d="M15.5991 14.6715H9.0136L6.1936 19.4669C6.53285 19.6348 6.9181 19.7425 7.16727 19.7425C9.75784 19.7425 15.0448 19.7052 17.6693 19.7052C17.9391 19.7052 18.1917 19.6156 18.4183 19.4753L15.5991 14.6715Z" fill="#4185F3"/>
<path d="M6.1936 19.4672L9.0136 14.6718H3.29924C3.29637 15.005 3.41808 15.3099 3.60879 15.6577C4.14009 16.6254 5.039 18.1722 5.56705 18.9801C5.69719 19.1792 6.21392 19.4772 6.1936 19.4672Z" fill="#1767D1"/>
<path d="M15.5991 14.6715L18.4193 19.4746C18.7848 19.2484 19.0827 18.8902 19.2761 18.5603C19.7127 17.8163 20.451 16.5775 20.9602 15.7388C21.1969 15.3488 21.2889 14.9986 21.2832 14.6711L15.5991 14.6715Z" fill="#E94235"/>
<path d="M9.01377 14.6719L12.3032 9.10477L9.36338 4.33325C9.0454 4.53682 8.77342 4.81317 8.64999 5.02364C7.36678 7.2146 4.78177 11.7049 3.48189 13.9242C3.34869 14.1513 3.28492 14.4107 3.29808 14.6719H9.01377Z" fill="#30A753"/>
<path d="M15.5985 14.6719L12.3032 9.10473L15.1623 4.33862C15.4803 4.54238 15.8293 4.81313 15.9527 5.02379C17.236 7.21456 19.821 11.7049 21.1214 13.9242C21.2556 14.1524 21.296 14.4106 21.283 14.6719H15.5985Z" fill="#F9BC00"/>
<path d="M9.36377 4.33402L12.3039 9.10479L15.163 4.33868C14.8679 4.17075 14.4498 4.0713 14.045 4.0588C12.9188 4.02222 11.093 4.00748 10.1103 4.04909C9.86805 4.05936 9.36684 4.33197 9.36377 4.33402Z" fill="#0F8038"/>
</svg>
