<svg width="25" height="24" viewBox="0 0 25 24" fill="none" xmlns="http://www.w3.org/2000/svg">
<path d="M13.4781 11.8452L15.2327 13.8507L17.5919 15.3584L18.0033 11.8576L17.5919 8.43488L15.1874 9.75952L13.4781 11.8452Z" fill="#00832D"/>
<path d="M3.29639 15.0334V18.0159C3.29639 18.6978 3.84867 19.2501 4.53053 19.2501H7.51305L8.13012 16.9957L7.51305 15.0334L5.46642 14.4163L3.29639 15.0334Z" fill="#0066DA"/>
<path d="M7.51305 4.44012L3.29639 8.65679L5.46642 9.27386L7.51305 8.65679L8.11984 6.72124L7.51305 4.44012Z" fill="#E94235"/>
<path d="M7.51305 8.65692H3.29639V15.0333H7.51305V8.65692Z" fill="#2684FC"/>
<path d="M20.2865 6.22576L17.5919 8.43488V15.3584L20.2988 17.5778C20.704 17.8946 21.2964 17.6056 21.2964 17.0903V6.70296C21.2964 6.18154 20.6906 5.89563 20.2865 6.22576ZM13.4781 11.8452V15.0334H7.51306V19.2501H16.3578C17.0396 19.2501 17.5919 18.6978 17.5919 18.016V15.3584L13.4781 11.8452Z" fill="#00AC47"/>
<path d="M16.3578 4.44037H7.51306V8.65703H13.4781V11.8452L17.5919 8.43694V5.67451C17.5919 4.99265 17.0396 4.44037 16.3578 4.44037Z" fill="#FFBA00"/>
</svg>
