<svg width="25" height="24" viewBox="0 0 25 24" fill="none" xmlns="http://www.w3.org/2000/svg">
<path d="M17.0675 17.1035C17.0691 17.7423 17.293 18.3954 17.2927 19.0342C17.2925 19.6826 17.0681 20.3165 17.0701 20.9649C13.8497 20.9644 10.6293 20.9649 7.40901 20.9646C7.41055 20.3272 7.1089 19.6715 7.10864 19.0342C7.1084 18.3845 7.40954 17.7532 7.41084 17.1035C10.6298 17.1045 13.8485 17.1038 17.0675 17.1035Z" fill="#3BAB59"/>
<path d="M13.3417 6.45311C13.789 6.00673 14.5031 5.77154 14.9453 5.32007C16.7776 7.16361 18.6176 8.99995 20.4542 10.8397C20.6197 11.01 20.8214 11.1668 20.886 11.4072C20.9491 11.5636 20.9298 11.734 20.9327 11.8985C20.9329 14.5922 20.9324 17.2856 20.9331 19.979C20.9738 20.5105 20.467 21.007 19.9378 20.9647C18.982 20.9647 18.0264 20.965 17.0705 20.9647C17.0666 19.6776 17.0712 18.3905 17.0679 17.1034C17.0702 15.6883 17.0689 14.2735 17.0684 12.8587C15.8755 11.6677 14.6851 10.4739 13.493 9.28231C13.0771 8.86281 12.6547 8.44942 12.2427 8.02632C12.4686 7.81011 13.1079 6.68638 13.3417 6.45311Z" fill="#4586F7"/>
<path d="M7.40777 12.864C7.41314 14.277 7.40723 15.6903 7.41083 17.1035C7.40825 18.3906 7.41212 19.6775 7.40906 20.9646C6.40324 20.9641 5.39741 20.9648 4.39159 20.9641C3.97154 20.9113 3.60169 20.5577 3.54817 20.1342C3.54484 18.9985 3.54715 17.8627 3.54742 16.7272C4.21763 16.0632 4.63576 15.2009 5.30367 14.5345C5.92239 13.9132 6.7919 13.4882 7.40777 12.864Z" fill="#FDC00D"/>
<path d="M12.1895 3.00174C12.2727 3.01206 12.3715 2.97932 12.4454 3.02592C12.6461 3.06504 12.8221 3.18112 12.9633 3.32601C13.5629 3.927 14.1631 4.52746 14.7633 5.12791C14.8235 5.19223 14.8937 5.24759 14.945 5.32014C14.2717 6.0076 13.5858 6.68243 12.9076 7.365C12.6853 7.58481 12.4682 7.81025 12.2423 8.02645C11.9443 8.30725 11.6622 8.60449 11.3703 8.89174C10.05 10.2164 8.72505 11.5362 7.40779 12.864C6.79191 13.4882 6.16857 14.1054 5.54978 14.7267C4.88195 15.393 4.21764 16.0632 3.54743 16.7272C3.54512 15.2713 3.54743 13.8153 3.54696 12.3596C3.54852 12.0847 3.54254 11.8098 3.55205 11.5352C3.54927 11.4796 3.59118 11.4356 3.58859 11.38C3.62751 11.3147 3.66222 11.2467 3.70006 11.1808C3.79529 11.0542 3.91368 10.9482 4.02413 10.8352C6.52246 8.33171 9.02154 5.82875 11.5206 3.32574C11.6228 3.21841 11.7399 3.12087 11.8822 3.07224C11.9821 3.03882 12.0809 2.99019 12.1895 3.00174Z" fill="#EC5043"/>
</svg>
