<svg width="25" height="24" viewBox="0 0 25 24" fill="none" xmlns="http://www.w3.org/2000/svg">
<path d="M3.96826 10.87C3.96826 8.34981 3.96826 7.08969 4.45873 6.12709C4.89016 5.28036 5.57858 4.59194 6.4253 4.16051C7.38791 3.67004 8.64803 3.67004 11.1683 3.67004H13.4383C15.9585 3.67004 17.2186 3.67004 18.1812 4.16051C19.0279 4.59194 19.7164 5.28036 20.1478 6.12709C20.6383 7.08969 20.6383 8.34981 20.6383 10.87V13.14C20.6383 15.6603 20.6383 16.9204 20.1478 17.883C19.7164 18.7297 19.0279 19.4181 18.1812 19.8496C17.2186 20.34 15.9585 20.34 13.4383 20.34H11.1683C8.64802 20.34 7.38791 20.34 6.4253 19.8496C5.57858 19.4181 4.89016 18.7297 4.45873 17.883C3.96826 16.9204 3.96826 15.6603 3.96826 13.14V10.87Z" fill="url(#paint0_radial_18_1686)"/>
<path d="M3.96826 10.87C3.96826 8.34981 3.96826 7.08969 4.45873 6.12709C4.89016 5.28036 5.57858 4.59194 6.4253 4.16051C7.38791 3.67004 8.64803 3.67004 11.1683 3.67004H13.4383C15.9585 3.67004 17.2186 3.67004 18.1812 4.16051C19.0279 4.59194 19.7164 5.28036 20.1478 6.12709C20.6383 7.08969 20.6383 8.34981 20.6383 10.87V13.14C20.6383 15.6603 20.6383 16.9204 20.1478 17.883C19.7164 18.7297 19.0279 19.4181 18.1812 19.8496C17.2186 20.34 15.9585 20.34 13.4383 20.34H11.1683C8.64802 20.34 7.38791 20.34 6.4253 19.8496C5.57858 19.4181 4.89016 18.7297 4.45873 17.883C3.96826 16.9204 3.96826 15.6603 3.96826 13.14V10.87Z" fill="url(#paint1_radial_18_1686)"/>
<path d="M12.2973 6.1665C10.713 6.1665 10.5142 6.17343 9.89196 6.20175C9.27094 6.23018 8.84705 6.3285 8.47614 6.47275C8.09248 6.62175 7.76702 6.82105 7.44278 7.14541C7.1183 7.46965 6.91899 7.7951 6.76951 8.17864C6.62489 8.54966 6.52645 8.97367 6.4985 9.59444C6.47067 10.2167 6.46338 10.4156 6.46338 11.9998C6.46338 13.5841 6.47043 13.7823 6.49862 14.4045C6.52718 15.0255 6.6255 15.4494 6.76963 15.8203C6.91875 16.204 7.11806 16.5294 7.44242 16.8537C7.76654 17.1781 8.09199 17.3779 8.47541 17.5269C8.84656 17.6712 9.27058 17.7695 9.89147 17.7979C10.5137 17.8262 10.7124 17.8332 12.2965 17.8332C13.8809 17.8332 14.0791 17.8262 14.7013 17.7979C15.3224 17.7695 15.7467 17.6712 16.1179 17.5269C16.5014 17.3779 16.8264 17.1781 17.1505 16.8537C17.475 16.5294 17.6743 16.204 17.8238 15.8204C17.9672 15.4494 18.0656 15.0254 18.0948 14.4046C18.1228 13.7824 18.13 13.5841 18.13 11.9998C18.13 10.4156 18.1228 10.2168 18.0948 9.59456C18.0656 8.97355 17.9672 8.54966 17.8238 8.17876C17.6743 7.7951 17.475 7.46965 17.1505 7.14541C16.826 6.82093 16.5016 6.62163 16.1175 6.47275C15.7456 6.3285 15.3215 6.23018 14.7005 6.20175C14.0783 6.17343 13.8802 6.1665 12.2954 6.1665H12.2973ZM11.774 7.21772C11.9293 7.21748 12.1026 7.21772 12.2973 7.21772C13.8548 7.21772 14.0394 7.22331 14.6544 7.25126C15.2232 7.27727 15.5319 7.3723 15.7375 7.45215C16.0097 7.55788 16.2038 7.68426 16.4079 7.88843C16.612 8.0926 16.7384 8.28704 16.8444 8.55926C16.9242 8.76465 17.0194 9.07333 17.0453 9.64208C17.0732 10.257 17.0793 10.4417 17.0793 11.9985C17.0793 13.5553 17.0732 13.74 17.0453 14.3549C17.0193 14.9237 16.9242 15.2324 16.8444 15.4377C16.7387 15.71 16.612 15.9038 16.4079 16.1078C16.2037 16.312 16.0099 16.4384 15.7375 16.5441C15.5321 16.6243 15.2232 16.7191 14.6544 16.7451C14.0395 16.7731 13.8548 16.7792 12.2973 16.7792C10.7396 16.7792 10.555 16.7731 9.94008 16.7451C9.37133 16.7189 9.06264 16.6238 8.85689 16.544C8.58467 16.4383 8.39022 16.3119 8.18605 16.1077C7.98188 15.9036 7.85549 15.7096 7.74952 15.4373C7.66968 15.2319 7.57452 14.9232 7.54863 14.3544C7.52068 13.7395 7.51509 13.5548 7.51509 11.997C7.51509 10.4393 7.52068 10.2555 7.54863 9.64062C7.57464 9.07187 7.66968 8.76319 7.74952 8.55756C7.85525 8.28534 7.98188 8.0909 8.18605 7.88673C8.39022 7.68256 8.58467 7.55617 8.85689 7.4502C9.06252 7.36999 9.37133 7.2752 9.94008 7.24907C10.4782 7.22477 10.6868 7.21748 11.774 7.21626V7.21772ZM15.4111 8.1863C15.0246 8.1863 14.7111 8.49947 14.7111 8.88605C14.7111 9.27251 15.0246 9.58605 15.4111 9.58605C15.7975 9.58605 16.1111 9.27251 16.1111 8.88605C16.1111 8.49959 15.7975 8.18605 15.4111 8.18605V8.1863ZM12.2973 9.00418C10.6429 9.00418 9.30157 10.3455 9.30157 11.9998C9.30157 13.6542 10.6429 14.9949 12.2973 14.9949C13.9516 14.9949 15.2925 13.6542 15.2925 11.9998C15.2925 10.3455 13.9515 9.00418 12.2971 9.00418H12.2973ZM12.2973 10.0554C13.3711 10.0554 14.2417 10.9259 14.2417 11.9998C14.2417 13.0737 13.3711 13.9443 12.2973 13.9443C11.2233 13.9443 10.3528 13.0737 10.3528 11.9998C10.3528 10.9259 11.2233 10.0554 12.2973 10.0554Z" fill="white"/>
<defs>
<radialGradient id="paint0_radial_18_1686" cx="0" cy="0" r="1" gradientUnits="userSpaceOnUse" gradientTransform="translate(8.39625 21.624) rotate(-90) scale(16.5212 15.366)">
<stop stop-color="#FFDD55"/>
<stop offset="0.1" stop-color="#FFDD55"/>
<stop offset="0.5" stop-color="#FF543E"/>
<stop offset="1" stop-color="#C837AB"/>
</radialGradient>
<radialGradient id="paint1_radial_18_1686" cx="0" cy="0" r="1" gradientUnits="userSpaceOnUse" gradientTransform="translate(1.17595 4.87092) rotate(78.6806) scale(7.38504 30.4415)">
<stop stop-color="#3771C8"/>
<stop offset="0.128" stop-color="#3771C8"/>
<stop offset="1" stop-color="#6600FF" stop-opacity="0"/>
</radialGradient>
</defs>
</svg>
