<svg width="25" height="24" viewBox="0 0 25 24" fill="none" xmlns="http://www.w3.org/2000/svg">
<path d="M6.74039 4.5V19.5H3.29639V4.5H6.74039ZM15.3354 4.5C15.3354 7.6455 14.1481 10.5787 12.0241 12.801L11.8156 13.0133L16.5729 19.5H12.3219L7.15214 12.45L8.48639 11.451C10.6299 9.846 11.8876 7.4175 11.9641 4.758L11.9679 4.5H15.3354ZM19.4214 15.75C19.9187 15.75 20.3956 15.9475 20.7472 16.2992C21.0988 16.6508 21.2964 17.1277 21.2964 17.625C21.2964 18.1223 21.0988 18.5992 20.7472 18.9508C20.3956 19.3025 19.9187 19.5 19.4214 19.5C18.9241 19.5 18.4472 19.3025 18.0956 18.9508C17.7439 18.5992 17.5464 18.1223 17.5464 17.625C17.5464 17.1277 17.7439 16.6508 18.0956 16.2992C18.4472 15.9475 18.9241 15.75 19.4214 15.75Z" fill="black"/>
</svg>
