<svg width="25" height="24" viewBox="0 0 25 24" fill="none" xmlns="http://www.w3.org/2000/svg">
<path d="M3.29639 4.32024C3.29639 3.61139 3.89221 3.03601 4.6267 3.03601H19.9661C20.7008 3.03601 21.2964 3.61139 21.2964 4.32024V19.68C21.2964 20.3891 20.7008 20.964 19.9661 20.964H4.6267C3.89229 20.964 3.29639 20.3891 3.29639 19.6802V4.32003V4.32024Z" fill="#0E76A8"/>
<path d="M8.76685 18.0393V9.96798H6.07332V18.0393H8.76713H8.76685ZM7.42064 8.86617C8.35974 8.86617 8.94439 8.24639 8.94439 7.47183C8.92681 6.67963 8.35974 6.07715 7.4385 6.07715C6.51664 6.07715 5.91455 6.67963 5.91455 7.47176C5.91455 8.24632 6.49899 8.8661 7.403 8.8661H7.42043L7.42064 8.86617ZM10.2578 18.0393H12.9511V13.5324C12.9511 13.2915 12.9687 13.05 13.0398 12.8779C13.2344 12.3957 13.6776 11.8966 14.4219 11.8966C15.3963 11.8966 15.7863 12.6367 15.7863 13.7218V18.0393H18.4795V13.4115C18.4795 10.9324 17.1509 9.77876 15.3788 9.77876C13.926 9.77876 13.2879 10.5876 12.9334 11.1384H12.9513V9.96826H10.2579C10.2931 10.7254 10.2577 18.0396 10.2577 18.0396L10.2578 18.0393Z" fill="white"/>
</svg>
