<svg width="25" height="24" viewBox="0 0 25 24" fill="none" xmlns="http://www.w3.org/2000/svg">
<path d="M17.0852 11.5057C17.2245 11.4901 17.3583 11.4893 17.4811 11.5057C17.5524 11.3523 17.5644 11.0876 17.5004 10.7994C17.4057 10.3709 17.2769 10.1118 17.0111 10.1521C16.7453 10.1924 16.7357 10.5026 16.8309 10.9311C16.8837 11.1721 16.9789 11.3783 17.0852 11.5057Z" fill="black"/>
<path d="M14.805 11.8448C14.9949 11.9232 15.1118 11.9756 15.1577 11.9301C15.1872 11.9015 15.1784 11.8474 15.1329 11.7776C15.0391 11.6333 14.8459 11.4868 14.6413 11.405C14.2228 11.2351 13.7234 11.2914 13.338 11.5523C13.2107 11.6402 13.0902 11.7616 13.1077 11.8357C13.1132 11.8595 13.132 11.8777 13.1771 11.8833C13.2819 11.8946 13.6485 11.72 14.0702 11.6957C14.3681 11.6784 14.6151 11.7663 14.805 11.8448Z" fill="black"/>
<path d="M14.4229 12.05C14.1755 12.0869 14.0389 12.1636 13.9511 12.2355C13.8761 12.297 13.8301 12.3651 13.8306 12.4132C13.8306 12.4361 13.8411 12.4491 13.8494 12.4556C13.8609 12.4652 13.8743 12.4704 13.8904 12.4704C13.9465 12.4704 14.0715 12.4231 14.0715 12.4231C14.416 12.307 14.6432 12.3209 14.8685 12.3451C14.9931 12.3581 15.0515 12.3655 15.0791 12.3252C15.0874 12.3135 15.0971 12.2888 15.0722 12.2507C15.0138 12.1614 14.7636 12.0119 14.4229 12.05Z" fill="black"/>
<path d="M16.3153 12.805C16.4832 12.883 16.6685 12.8522 16.7287 12.737C16.789 12.6213 16.7016 12.4649 16.5333 12.3869C16.365 12.3089 16.1801 12.3396 16.1199 12.4549C16.0601 12.5706 16.1475 12.7274 16.3153 12.805Z" fill="black"/>
<path d="M17.3963 11.9154C17.2597 11.9132 17.1466 12.0545 17.1434 12.2308C17.1402 12.4072 17.2482 12.5519 17.3848 12.5541C17.5214 12.5562 17.6345 12.415 17.6377 12.2386C17.641 12.0623 17.5329 11.9175 17.3963 11.9154Z" fill="black"/>
<path d="M8.22415 15.0969C8.19012 15.0566 8.13447 15.0692 8.08021 15.0809C8.0425 15.0891 7.99973 15.0986 7.95282 15.0978C7.85257 15.096 7.7675 15.0553 7.71967 14.9864C7.65759 14.8963 7.66127 14.7624 7.72979 14.6086C7.73898 14.5878 7.75002 14.5648 7.76198 14.5397C7.87143 14.3083 8.05491 13.9205 7.84889 13.5513C7.69392 13.2735 7.44145 13.1002 7.13748 13.0638C6.84592 13.0292 6.54562 13.131 6.35432 13.3299C6.05219 13.644 6.00482 14.0713 6.06322 14.222C6.08484 14.2775 6.11795 14.2927 6.14232 14.2957C6.19383 14.3022 6.2697 14.2671 6.31753 14.1462C6.32075 14.1375 6.32535 14.1241 6.33133 14.1068C6.35248 14.0431 6.39203 13.9244 6.45687 13.829C6.53505 13.7142 6.65645 13.6349 6.79901 13.6063C6.94433 13.5768 7.09287 13.6033 7.21703 13.68C7.42857 13.8104 7.50997 14.0548 7.41984 14.2879C7.37293 14.4084 7.29705 14.6389 7.31407 14.8282C7.3481 15.2117 7.59826 15.3655 7.82314 15.382C8.04158 15.3898 8.19471 15.2741 8.23334 15.1896C8.25542 15.1402 8.23656 15.1099 8.22415 15.0969Z" fill="black"/>
<path d="M20.593 14.3954C20.5852 14.3677 20.534 14.1809 20.4638 13.956C20.3937 13.7311 20.3209 13.5725 20.3209 13.5725C20.6025 13.1509 20.6073 12.7739 20.57 12.5608C20.5301 12.296 20.4201 12.0707 20.1978 11.8376C19.9759 11.6045 19.5218 11.3657 18.8836 11.1867C18.8108 11.1664 18.5699 11.1001 18.5486 11.0936C18.5469 11.0797 18.5309 10.3041 18.5166 9.97131C18.5062 9.73083 18.4854 9.35472 18.3688 8.98467C18.2297 8.48377 17.9879 8.04526 17.6855 7.76491C18.5196 6.90046 19.04 5.94805 19.0387 5.13127C19.0361 3.56009 17.107 3.08475 14.729 4.06923C14.7264 4.0701 14.229 4.28112 14.2251 4.28328C14.2229 4.28112 13.3143 3.3898 13.3008 3.37767C10.5901 1.01311 2.11411 10.4341 4.82402 12.7224L5.41635 13.2242C5.26253 13.6219 5.2023 14.0782 5.25169 14.5683C5.31496 15.1979 5.63994 15.8019 6.16641 16.2681C6.66601 16.711 7.32334 16.9913 7.96117 16.9909C9.01584 19.4209 11.425 20.9119 14.2506 20.996C17.2812 21.0861 19.8252 19.664 20.8911 17.1096C20.9609 16.9302 21.2568 16.1226 21.2568 15.4093C21.2559 14.6926 20.8508 14.3954 20.593 14.3954ZM8.19386 16.308C8.102 16.3236 8.00797 16.3301 7.91307 16.3275C6.99793 16.3028 6.00912 15.4791 5.91076 14.5015C5.802 13.4213 6.35403 12.5902 7.33114 12.3931C7.44813 12.3697 7.58896 12.3558 7.74148 12.364C8.28919 12.3939 9.09601 12.8147 9.28016 14.0071C9.44352 15.0635 9.18397 16.1394 8.19386 16.308ZM7.17168 11.7474C6.56332 11.8657 6.02732 12.2106 5.6993 12.6869C5.50345 12.5235 5.13817 12.2072 5.07361 12.0837C4.55017 11.0897 5.64471 9.15713 6.40949 8.06563C8.29959 5.36872 11.2595 3.32741 12.6301 3.69788C12.8528 3.76115 13.5907 4.6165 13.5907 4.6165C13.5907 4.6165 12.221 5.37652 10.9506 6.43596C9.239 7.75321 7.94601 9.66886 7.17168 11.7474ZM16.7794 15.9042C16.7994 15.8959 16.8132 15.873 16.8106 15.8504C16.8076 15.8227 16.7829 15.8023 16.7552 15.8054C16.7552 15.8054 15.3213 16.0177 13.9668 15.5216C14.1141 15.0419 14.5067 15.2152 15.0995 15.2629C16.1685 15.3266 17.1261 15.1706 17.8341 14.9674C18.4477 14.7914 19.2532 14.4443 19.8793 13.9504C20.0903 14.414 20.1649 14.9245 20.1649 14.9245C20.1649 14.9245 20.3282 14.8954 20.4647 14.979C20.5938 15.0583 20.6883 15.2234 20.6237 15.6502C20.492 16.4475 20.1532 17.0945 19.5838 17.6898C19.2372 18.0629 18.816 18.3874 18.3346 18.6236C18.0789 18.7579 17.8064 18.8741 17.5187 18.9681C15.3716 19.6692 13.1734 18.8983 12.465 17.2427C12.4082 17.1183 12.3606 16.9879 12.3229 16.8518C12.0208 15.7607 12.2774 14.4517 13.0785 13.628V13.6276C13.1279 13.5751 13.1782 13.5132 13.1782 13.4356C13.1782 13.3706 13.137 13.3021 13.1011 13.2532C12.8207 12.8467 11.8497 12.1539 12.0447 10.8128C12.1846 9.84955 13.027 9.17099 13.8126 9.21129C13.8789 9.21476 13.9452 9.21866 14.0115 9.22256C14.352 9.24249 14.6489 9.28625 14.9288 9.29795C15.3976 9.31832 15.8192 9.24986 16.3188 8.83388C16.4874 8.69349 16.6226 8.57173 16.8509 8.53316C16.8748 8.52927 16.9346 8.5076 17.0541 8.51323C17.1759 8.51973 17.292 8.5531 17.3965 8.62243C17.7968 8.88891 17.8536 9.53411 17.8744 10.0064C17.8861 10.2759 17.9186 10.9281 17.9299 11.1148C17.9554 11.5429 18.0677 11.6031 18.2956 11.6781C18.4234 11.7201 18.5426 11.7518 18.7176 11.8007C19.2476 11.9494 19.5617 12.1006 19.7602 12.2943C19.8784 12.4156 19.933 12.5443 19.9504 12.6669C20.0128 13.1228 19.5964 13.6861 18.494 14.1978C17.289 14.7572 15.8266 14.8989 14.8165 14.7862C14.739 14.7776 14.4634 14.7464 14.4625 14.7464C13.6544 14.6376 13.1934 15.6819 13.6787 16.3973C13.9911 16.8583 14.8425 17.1586 15.6944 17.1586C17.6473 17.159 19.1488 16.3249 19.7069 15.6047C19.7238 15.5831 19.7251 15.5809 19.7515 15.541C19.7788 15.4995 19.7563 15.4769 19.722 15.5003C19.2658 15.8123 17.2396 17.0516 15.0718 16.6789C15.0718 16.6789 14.8083 16.6356 14.5678 16.542C14.3767 16.4679 13.9768 16.2837 13.9283 15.8734C15.678 16.4155 16.7794 15.9042 16.7794 15.9042ZM14.0084 15.577C14.0084 15.5774 14.0084 15.5774 14.0084 15.577C14.0089 15.5779 14.0089 15.5779 14.0089 15.5783C14.0089 15.5779 14.0084 15.5774 14.0084 15.577ZM10.662 8.05479C11.334 7.27831 12.1612 6.60321 12.9018 6.2245C12.9273 6.2115 12.9546 6.23923 12.9408 6.26437C12.8818 6.37096 12.7687 6.59888 12.7328 6.7722C12.7271 6.79907 12.7566 6.81943 12.7791 6.80383C13.2402 6.48969 14.0418 6.15301 14.7455 6.10967C14.7758 6.10794 14.7901 6.14651 14.7663 6.16514C14.6593 6.24703 14.5423 6.36056 14.4569 6.47539C14.4422 6.49489 14.456 6.52305 14.4803 6.52305C14.9743 6.52652 15.6706 6.69941 16.1243 6.95376C16.155 6.97109 16.1329 7.03045 16.0987 7.02265C15.4119 6.86536 14.2883 6.74577 13.1206 7.03045C12.0785 7.28481 11.2829 7.67738 10.7027 8.09942C10.6737 8.12109 10.6386 8.08209 10.662 8.05479Z" fill="black"/>
</svg>
