<svg width="25" height="24" viewBox="0 0 25 24" fill="none" xmlns="http://www.w3.org/2000/svg">
<path d="M8.37295 6.77274C11.1768 6.77274 13.4495 9.11323 13.4495 12.0001C13.4495 14.887 11.1766 17.2273 8.37295 17.2273C5.56945 17.2273 3.29639 14.887 3.29639 12.0001C3.29639 9.1133 5.56924 6.77274 8.37295 6.77274ZM16.48 7.07891C17.8819 7.07891 19.0183 9.28199 19.0183 12.0001H19.0185C19.0185 14.7175 17.8821 16.9212 16.4803 16.9212C15.0784 16.9212 13.9419 14.7175 13.9419 12.0001C13.9419 9.28271 15.0782 7.07891 16.4801 7.07891H16.48ZM20.4036 7.59154C20.8966 7.59154 21.2964 9.56531 21.2964 12.0001C21.2964 14.4342 20.8967 16.4087 20.4036 16.4087C19.9105 16.4087 19.5111 14.4348 19.5111 12.0001C19.5111 9.56545 19.9107 7.59154 20.4036 7.59154Z" fill="black"/>
</svg>
