<svg width="25" height="24" viewBox="0 0 25 24" fill="none" xmlns="http://www.w3.org/2000/svg">
<path d="M21.2958 11.5711C21.2958 16.305 17.343 20.1422 12.4626 20.1422C11.7334 20.1422 11.0272 20.0569 10.3497 19.8943C10.1443 19.8451 9.92968 19.864 9.74065 19.958L7.8075 20.9202C7.30843 21.1685 6.72102 20.8072 6.72102 20.2516V18.4825C6.72102 18.2297 6.60751 17.9941 6.42025 17.8236C4.70042 16.2588 3.62939 14.0369 3.62939 11.5711C3.62939 6.83722 7.58226 3 12.4626 3C17.343 3 21.2958 6.83722 21.2958 11.5711Z" fill="url(#paint0_radial_18_1733)"/>
<path opacity="0.05" d="M17.3178 8.8418C17.1288 8.8418 16.9455 8.90421 16.7878 9.02245L14.273 10.8751C14.2142 10.9191 14.1493 10.9411 14.0809 10.9411C14.0146 10.9411 13.9523 10.9204 13.8998 10.8813L12.1455 9.56704C11.7886 9.30288 11.3682 9.16354 10.9278 9.16354C10.2318 9.16354 9.59182 9.51122 9.21596 10.0936L8.68111 10.9248L6.86147 13.8675C6.68834 14.1374 6.67509 14.4706 6.83011 14.7528C6.98823 15.0402 7.28679 15.2187 7.6092 15.2187C7.79823 15.2187 7.98152 15.1563 8.1392 15.038L10.654 13.1854C10.7128 13.1414 10.7777 13.1194 10.8461 13.1194C10.9124 13.1194 10.9747 13.1401 11.0272 13.1792L12.7815 14.4934C13.1388 14.7581 13.5588 14.897 13.9991 14.897C14.6952 14.897 15.3352 14.5493 15.711 13.9669L16.2459 13.1357L18.0655 10.193C18.2386 9.92307 18.2519 9.5899 18.0969 9.30771C17.9388 9.02025 17.6402 8.8418 17.3178 8.8418Z" fill="black"/>
<path opacity="0.07" d="M17.3174 9.0625C17.1766 9.0625 17.0392 9.10953 16.9204 9.19876L14.4043 11.0528C14.3089 11.1244 14.1976 11.1618 14.081 11.1618C13.9666 11.1618 13.8584 11.1257 13.7674 11.058L12.0127 9.74335C11.6951 9.5082 11.3201 9.38425 10.9275 9.38425C10.307 9.38425 9.73679 9.69412 9.40157 10.2137L8.86716 11.0448L7.04972 13.9845C6.91855 14.1889 6.90839 14.4386 7.02411 14.6487C7.14159 14.8623 7.37169 15.0003 7.60931 15.0003C7.7502 15.0003 7.88755 14.9533 8.00636 14.864L10.5225 13.01C10.6179 12.9384 10.7292 12.901 10.8458 12.901C10.9602 12.901 11.0684 12.9371 11.1594 13.0048L12.9141 14.3194C13.2316 14.5546 13.6066 14.6785 13.9993 14.6785C14.6198 14.6785 15.19 14.3687 15.5252 13.8491L16.0596 13.018L17.877 10.0783C18.0082 9.8739 18.0184 9.62424 17.9026 9.41413C17.7852 9.20052 17.5555 9.0625 17.3174 9.0625Z" fill="black"/>
<path d="M17.0535 9.37528L14.536 11.2302C14.2666 11.4323 13.9 11.4323 13.635 11.2345L11.8798 9.91987C11.1379 9.37044 10.0867 9.55945 9.58763 10.333L9.05322 11.1638L7.238 14.0999C6.973 14.5131 7.48091 14.9834 7.87399 14.6889L10.3915 12.834C10.6609 12.6319 11.0274 12.6319 11.2924 12.8297L13.0476 14.1443C13.7896 14.6938 14.8407 14.5047 15.3398 13.7312L15.8742 12.9004L17.6894 9.96427C17.9544 9.5511 17.4465 9.08078 17.0535 9.37528Z" fill="white"/>
<defs>
<radialGradient id="paint0_radial_18_1733" cx="0" cy="0" r="1" gradientUnits="userSpaceOnUse" gradientTransform="translate(6.75944 20.1325) scale(21.0283 20.9275)">
<stop stop-color="#1292FF"/>
<stop offset="0.079" stop-color="#2982FF"/>
<stop offset="0.23" stop-color="#4E69FF"/>
<stop offset="0.351" stop-color="#6559FF"/>
<stop offset="0.428" stop-color="#6D53FF"/>
<stop offset="0.754" stop-color="#DF47AA"/>
<stop offset="0.946" stop-color="#FF6257"/>
</radialGradient>
</defs>
</svg>
