<svg width="25" height="24" viewBox="0 0 25 24" fill="none" xmlns="http://www.w3.org/2000/svg">
<path d="M4.45663 14.1111C4.45663 14.8725 4.62425 15.4546 4.84333 15.8076C4.96008 16.0086 5.12821 16.1752 5.33062 16.2906C5.53304 16.4059 5.76253 16.4659 5.99579 16.4645C6.55915 16.4645 7.07452 16.326 8.0677 14.9583C8.86336 13.8626 9.80091 12.3281 10.4324 11.3591L11.5007 9.72555C12.2428 8.59109 13.1004 7.32997 14.0866 6.47238C14.8899 5.77744 15.7572 5.38983 16.6301 5.38983C18.0955 5.38983 19.4914 6.23496 20.5597 7.82002C21.7289 9.55597 22.2985 11.7425 22.2985 13.999C22.2985 15.3404 22.0328 16.326 21.5807 17.1047C21.1446 17.8578 20.2905 18.6102 18.8585 18.6102V16.4645C20.0847 16.4645 20.3886 15.3432 20.3886 14.0599C20.3886 12.2312 19.9602 10.2018 19.0164 8.75167C18.3466 7.72312 17.4786 7.09463 16.5237 7.09463C15.4908 7.09463 14.6597 7.86986 13.7257 9.25211C13.2291 9.9865 12.7193 10.8815 12.1469 11.8913L11.5167 12.9988C10.2509 15.2324 9.93027 15.7411 9.29736 16.5807C8.19011 18.0564 7.24283 18.6102 5.99579 18.6102C4.51644 18.6102 3.58099 17.9727 3.00511 17.012C2.52869 16.2291 2.29639 15.202 2.29639 14.0315L4.45663 14.1111Z" fill="#0081FB"/>
<path d="M3.99976 7.9716C4.99016 6.4523 6.41942 5.38983 8.05873 5.38983C9.0081 5.38983 9.9519 5.6667 10.9374 6.4703C12.0155 7.34589 13.1631 8.78767 14.5979 11.1639L15.1119 12.0166C16.3527 14.0737 17.0593 15.1314 17.4717 15.6311C18.0031 16.272 18.3759 16.4617 18.8586 16.4617C20.0847 16.4617 20.3887 15.3404 20.3887 14.0571L22.2944 13.9976C22.2944 15.339 22.0287 16.3246 21.5766 17.1033C21.1447 17.8578 20.2906 18.6102 18.8586 18.6102C17.9683 18.6102 17.1796 18.4177 16.3074 17.5989C15.637 16.9704 14.8531 15.854 14.2501 14.8503L12.4564 11.8685C11.5564 10.372 10.7309 9.25626 10.2531 8.75375C9.73838 8.20763 9.07835 7.55146 8.02396 7.55146C7.17057 7.55146 6.44585 8.14741 5.83937 9.05899L3.99976 7.9716Z" fill="url(#paint0_linear_18_1778)"/>
<path d="M8.02389 7.55146C7.1705 7.55146 6.44578 8.14741 5.8393 9.05899C4.98174 10.3471 4.45663 12.2658 4.45663 14.1111C4.45663 14.8725 4.62425 15.4546 4.84333 15.8076L3.00163 17.012C2.52869 16.2291 2.29639 15.202 2.29639 14.0315C2.29639 11.9031 2.88339 9.68471 3.99968 7.9716C4.99009 6.4523 6.41935 5.38983 8.05866 5.38983L8.02389 7.55146Z" fill="url(#paint1_linear_18_1778)"/>
<defs>
<linearGradient id="paint0_linear_18_1778" x1="6.63225" y1="11.6574" x2="20.4029" y2="12.3562" gradientUnits="userSpaceOnUse">
<stop stop-color="#0064E1"/>
<stop offset="0.4" stop-color="#0064E1"/>
<stop offset="0.83" stop-color="#0073EE"/>
<stop offset="1" stop-color="#0082FB"/>
</linearGradient>
<linearGradient id="paint1_linear_18_1778" x1="5.17718" y1="15.0109" x2="5.17718" y2="9.95812" gradientUnits="userSpaceOnUse">
<stop stop-color="#0082FB"/>
<stop offset="1" stop-color="#0064E0"/>
</linearGradient>
</defs>
</svg>
