<svg width="25" height="24" viewBox="0 0 25 24" fill="none" xmlns="http://www.w3.org/2000/svg">
<path d="M5.53555 17.2922C4.72545 17.2939 3.97706 16.8597 3.57663 16.1554C3.18198 15.4556 3.20564 14.595 3.63817 13.9179L7.67224 7.58305C8.09258 6.88991 8.85336 6.47654 9.66363 6.50103C10.4733 6.52043 11.2098 6.9744 11.5909 7.68903C11.967 8.40012 11.92 9.25565 11.4696 9.92315L7.43806 16.258C7.02255 16.9055 6.30487 17.2956 5.53555 17.2922Z" fill="#F62B54"/>
<path d="M12.4553 17.2921C11.6417 17.2921 10.893 16.8571 10.4998 16.158C10.106 15.46 10.1297 14.6016 10.5613 13.9264L14.5877 7.60609C15.002 6.903 15.765 6.47993 16.5808 6.501C17.4013 6.51894 18.1449 6.9779 18.5209 7.69583C18.8944 8.41376 18.8397 9.27441 18.3756 9.94021L14.3501 16.2605C13.9359 16.9052 13.2216 17.2941 12.4553 17.2921Z" fill="#FFCC00"/>
<path d="M19.2198 17.3452C20.3668 17.3452 21.2967 16.4348 21.2967 15.3119C21.2967 14.189 20.3668 13.2786 19.2198 13.2786C18.0728 13.2786 17.1429 14.189 17.1429 15.3119C17.1429 16.4348 18.0728 17.3452 19.2198 17.3452Z" fill="#00CA72"/>
</svg>
