<svg width="25" height="24" viewBox="0 0 25 24" fill="none" xmlns="http://www.w3.org/2000/svg">
<path fill-rule="evenodd" clip-rule="evenodd" d="M9.87134 3.3805C7.10504 3.59802 4.75302 3.78836 4.64611 3.80195C4.33875 3.86993 4.05811 4.07385 3.92447 4.35935L3.8042 4.60407L3.81756 10.5044L3.83093 16.4047L4.00466 16.7717C4.11157 16.9757 4.77975 17.9273 5.51476 18.8926C6.9714 20.8231 7.07831 20.9183 7.62623 20.9862C7.78659 20.9998 9.00269 20.9455 10.299 20.8639C11.6086 20.7823 13.7201 20.6464 14.9763 20.5784C20.3619 20.2385 20.0812 20.2657 20.402 19.9938C20.7895 19.6675 20.7494 20.2113 20.7761 13.0331C20.7895 6.95603 20.7761 6.54817 20.6826 6.37144C20.5891 6.15391 20.402 6.01796 17.943 4.26419C16.2993 3.08141 16.179 3.02703 15.444 3.01343C15.1366 2.99984 12.6243 3.17657 9.87134 3.3805Z" fill="white"/>
<path fill-rule="evenodd" clip-rule="evenodd" d="M9.87134 3.3805C7.10504 3.59802 4.75302 3.78836 4.64611 3.80195C4.33875 3.86993 4.05811 4.07385 3.92447 4.35935L3.8042 4.60407L3.81756 10.5044L3.83093 16.4047L4.00466 16.7717C4.11157 16.9757 4.77975 17.9273 5.51476 18.8926C6.9714 20.8231 7.07831 20.9183 7.62623 20.9862C7.78659 20.9998 9.00269 20.9455 10.299 20.8639C11.6086 20.7823 13.7201 20.6464 14.9763 20.5784C20.3619 20.2385 20.0812 20.2657 20.402 19.9938C20.7895 19.6675 20.7494 20.2113 20.7761 13.0331C20.7895 6.95603 20.7761 6.54817 20.6826 6.37144C20.5891 6.15391 20.402 6.01796 17.943 4.26419C16.2993 3.08141 16.179 3.02703 15.444 3.01343C15.1366 2.99984 12.6243 3.17657 9.87134 3.3805ZM16.0855 4.15543C16.326 4.26419 18.0232 5.46056 18.2638 5.69168C18.3306 5.75965 18.3573 5.82763 18.3172 5.85482C18.2504 5.9228 7.73314 6.56177 7.42577 6.50739C7.29213 6.49379 7.09168 6.41222 6.9714 6.33065C6.49031 5.99077 5.30094 4.99833 5.30094 4.93035C5.30094 4.74002 5.26085 4.74002 9.93815 4.38654C10.8335 4.33216 12.3169 4.2234 13.2123 4.14183C15.15 3.99228 15.7247 3.99228 16.0855 4.15543ZM19.4264 7.22793C19.5066 7.3095 19.5734 7.45905 19.6001 7.6086C19.6135 7.74455 19.6269 10.2733 19.6135 13.2098C19.6001 18.24 19.5868 18.5663 19.4932 18.7023C19.4398 18.7974 19.3329 18.8926 19.2393 18.9198C19.0121 19.0149 8.00041 19.6539 7.77323 19.5859C7.66632 19.5587 7.51932 19.4636 7.4525 19.382L7.31886 19.2461L7.3055 13.808C7.29213 9.98775 7.3055 8.30195 7.34559 8.1524C7.37232 8.04364 7.46586 7.90769 7.53268 7.85331C7.62623 7.78533 8.28105 7.73095 10.5262 7.595C12.1031 7.51343 14.5486 7.36388 15.9385 7.26872C19.2794 7.06479 19.266 7.06479 19.4264 7.22793Z" fill="black"/>
<path fill-rule="evenodd" clip-rule="evenodd" d="M16.4726 9.09044C15.8712 9.13123 15.3366 9.18561 15.2832 9.22639C15.0961 9.32156 14.9892 9.4847 14.9625 9.66144C14.9491 9.83818 15.0026 9.86537 15.6039 9.94694L15.8578 9.97413V12.3805C15.8578 13.808 15.8445 14.746 15.8044 14.7188C15.7776 14.6917 15.0026 13.4681 14.0671 12.027C13.1316 10.5587 12.3565 9.36234 12.3432 9.36234C12.3298 9.34875 11.7284 9.37594 10.9934 9.43032C10.0981 9.4847 9.6036 9.55268 9.51005 9.60706C9.34969 9.68863 9.1626 9.98772 9.1626 10.1781C9.1626 10.3004 9.37642 10.3684 9.81742 10.3684H10.058V17.2747L9.67042 17.3971C9.38978 17.4787 9.28287 17.533 9.22942 17.6554C9.14923 17.8457 9.14923 18.0089 9.24278 18.0089C9.26951 18.0089 9.8976 17.9817 10.6192 17.9273C12.0358 17.8457 12.1962 17.8049 12.3432 17.5058C12.3966 17.4243 12.4367 17.3291 12.4367 17.2883C12.4367 17.2747 12.2363 17.2068 12.0091 17.1524C11.7685 17.098 11.528 17.03 11.4745 17.03C11.381 17.0028 11.381 16.8261 11.381 14.4062V11.8095L13.0648 14.4877C14.8288 17.3019 15.0426 17.6282 15.3233 17.7642C15.6574 17.9409 16.5127 17.8185 16.9403 17.533L17.0739 17.4515L17.0873 13.6176L17.1007 9.7702L17.3947 9.71582C17.7421 9.64784 17.9025 9.4847 17.9025 9.1992C17.9025 9.02247 17.8891 9.00887 17.7288 9.02247C17.6352 9.02247 17.0606 9.06325 16.4726 9.09044Z" fill="black"/>
</svg>
