<svg width="25" height="24" viewBox="0 0 25 24" fill="none" xmlns="http://www.w3.org/2000/svg">
<path d="M9.33623 17.0695C8.33779 15.8953 7.69795 14.1586 7.65576 12.2109V11.7891C7.69795 9.84141 8.34482 8.10469 9.33623 6.93047C10.63 5.25703 12.5284 4.50469 14.6729 4.50469C15.9948 4.50469 17.2394 4.59609 18.294 5.29922C16.712 3.87188 14.6237 3.00703 12.3315 3H12.2964C7.32529 3 3.29639 7.02891 3.29639 12C3.29639 16.8234 7.09326 20.768 11.8675 20.993C12.0081 21 12.1558 21 12.2964 21C14.6026 21 16.705 20.1352 18.294 18.7078C17.2394 19.4109 16.0651 19.4391 14.7433 19.4391C12.6058 19.4461 10.6229 18.75 9.33623 17.0695Z" fill="url(#paint0_linear_18_1630)"/>
<path d="M9.33618 6.93048C10.1588 5.95314 11.2276 5.36954 12.3948 5.36954C15.0174 5.36954 17.1409 8.33673 17.1409 12.007C17.1409 15.6774 15.0174 18.6445 12.3948 18.6445C11.2276 18.6445 10.1659 18.0539 9.33618 17.0836C10.6299 18.757 12.5495 19.8258 14.687 19.8258C16.0018 19.8258 17.2393 19.425 18.294 18.7219C20.1362 17.0625 21.2963 14.6649 21.2963 12C21.2963 9.33517 20.1362 6.93751 18.294 5.2922C17.2393 4.58907 16.0088 4.18829 14.687 4.18829C12.5424 4.18829 10.6229 5.25001 9.33618 6.93048Z" fill="url(#paint1_linear_18_1630)"/>
<defs>
<linearGradient id="paint0_linear_18_1630" x1="10.7956" y1="3.29347" x2="10.7956" y2="20.7381" gradientUnits="userSpaceOnUse">
<stop offset="0.3" stop-color="#FF1B2D"/>
<stop offset="0.4381" stop-color="#FA1A2C"/>
<stop offset="0.5939" stop-color="#ED1528"/>
<stop offset="0.7581" stop-color="#D60E21"/>
<stop offset="0.9272" stop-color="#B70519"/>
<stop offset="1" stop-color="#A70014"/>
</linearGradient>
<linearGradient id="paint1_linear_18_1630" x1="15.3151" y1="4.32168" x2="15.3151" y2="19.7506" gradientUnits="userSpaceOnUse">
<stop stop-color="#9C0000"/>
<stop offset="0.7" stop-color="#FF4B4B"/>
</linearGradient>
</defs>
</svg>
