<svg width="25" height="24" viewBox="0 0 25 24" fill="none" xmlns="http://www.w3.org/2000/svg">
<path d="M17.4902 4.40107C16.6596 3.45445 15.1583 3.04861 13.2378 3.04861H7.66375C7.27082 3.04861 6.93692 3.33439 6.8754 3.72187L4.55449 18.4416C4.50835 18.7319 4.73309 18.9948 5.0273 18.9948H8.46848L9.33275 13.5131L9.30595 13.6847C9.36748 13.2972 9.69889 13.0115 10.0913 13.0115H11.7266C14.9391 13.0115 17.4544 11.7066 18.1892 7.93205C18.2111 7.82042 18.2299 7.71177 18.2463 7.6056C18.1535 7.55648 18.1535 7.55648 18.2463 7.6056C18.4651 6.21047 18.2448 5.26087 17.4902 4.40107Z" fill="#27346A"/>
<path d="M10.6495 7.10302C10.7413 7.05936 10.8435 7.03505 10.9506 7.03505H15.3206C15.838 7.03505 16.3208 7.06878 16.7618 7.13973C16.8884 7.16007 17.0109 7.18339 17.13 7.21018C17.249 7.23648 17.3646 7.26624 17.4768 7.29899C17.5328 7.31536 17.5879 7.33223 17.642 7.35009C17.8588 7.42253 18.0607 7.50687 18.2463 7.6056C18.4651 6.20998 18.2448 5.26087 17.4902 4.40107C16.6591 3.45445 15.1583 3.04861 13.2378 3.04861H7.66326C7.27082 3.04861 6.93692 3.33439 6.8754 3.72187L4.55449 18.4411C4.50835 18.7319 4.7331 18.9943 5.02681 18.9943H8.46848L10.2615 7.62396C10.2982 7.39077 10.4481 7.19976 10.6495 7.10302Z" fill="#27346A"/>
<path d="M18.1897 7.93192C17.4549 11.706 14.9395 13.0113 11.7271 13.0113H10.0913C9.69887 13.0113 9.36745 13.2971 9.30643 13.6846L8.23131 20.5005C8.19112 20.7545 8.38759 20.9847 8.64458 20.9847H11.5455C11.8888 20.9847 12.181 20.7346 12.2346 20.3958L12.2629 20.2479L12.8096 16.7829L12.8448 16.5914C12.8984 16.2526 13.1907 16.0025 13.534 16.0025H13.9681C16.7782 16.0025 18.9785 14.8609 19.6215 11.5592C19.8899 10.1794 19.751 9.02739 19.0411 8.21819C18.8257 7.9731 18.5583 7.77068 18.2467 7.60547C18.2299 7.71214 18.2115 7.82029 18.1897 7.93192Z" fill="#2790C3"/>
<path d="M17.477 7.2991C17.3648 7.26635 17.2492 7.23659 17.1302 7.21029C17.0111 7.184 16.8881 7.16068 16.762 7.14034C16.3205 7.06889 15.8382 7.03516 15.3203 7.03516H10.9508C10.8432 7.03516 10.741 7.05947 10.6497 7.10362C10.4478 7.20037 10.2984 7.39088 10.2617 7.62456L9.33294 13.5132L9.30615 13.6848C9.36718 13.2973 9.69859 13.0116 10.091 13.0116H11.7268C14.9392 13.0116 17.4546 11.7067 18.1894 7.93217C18.2112 7.82054 18.2296 7.71238 18.2465 7.60571C18.0604 7.50748 17.859 7.42264 17.6422 7.3507C17.5881 7.33284 17.533 7.31547 17.477 7.2991Z" fill="#1F264F"/>
</svg>
