<svg width="25" height="24" viewBox="0 0 25 24" fill="none" xmlns="http://www.w3.org/2000/svg">
<path d="M12.2964 21C17.2669 21 21.2964 16.9706 21.2964 12C21.2964 7.02944 17.2669 3 12.2964 3C7.32582 3 3.29639 7.02944 3.29639 12C3.29639 16.9706 7.32582 21 12.2964 21Z" fill="#E13138"/>
<path d="M12.6491 7.81836C10.1327 7.81836 8.86194 9.59606 8.86194 11.0787C8.86194 11.9783 9.20753 12.7736 9.94552 13.0723C10.0679 13.1227 10.1759 13.0759 10.2119 12.9427C10.2371 12.8528 10.3487 12.6189 10.3739 12.5253C10.4099 12.3958 10.3955 12.349 10.2983 12.2338C10.0859 11.9855 9.95272 11.7264 9.95272 11.273C9.95272 9.76159 10.8959 8.68562 12.5015 8.68562C13.9235 8.68562 14.7047 9.56727 14.7047 10.7116C14.7047 12.2158 14.0279 13.4393 13.0235 13.4393C12.4691 13.4393 12.0551 13.0363 12.1883 12.4821C12.3467 11.82 12.6563 11.1075 12.6563 10.6288C12.6563 10.2006 12.4259 9.89474 11.9435 9.89474C11.3783 9.89474 10.9211 10.4237 10.9211 11.1974C10.9211 11.6904 11.0831 11.9351 11.0831 11.9351C11.0831 11.9351 10.5107 14.4433 10.4063 14.868C10.2047 15.7136 10.3775 16.7464 10.3919 16.8508C10.3991 16.912 10.4819 16.9264 10.5179 16.8796C10.5683 16.8148 11.2451 15.9907 11.4755 15.1703C11.5403 14.9399 11.8499 13.738 11.8499 13.738C12.0335 14.0835 12.5735 14.3066 13.1423 14.3066C14.8451 14.3066 16.0006 12.8564 16.0006 10.8124C16.0042 9.26139 14.6723 7.81836 12.6491 7.81836Z" fill="white"/>
</svg>
