<svg width="25" height="24" viewBox="0 0 25 24" fill="none" xmlns="http://www.w3.org/2000/svg">
<path d="M13.3348 17.0356C12.726 15.808 12.0119 14.5682 10.6188 14.5682C10.3525 14.5682 10.0865 14.6134 9.84242 14.7275L9.36917 13.7572C9.94589 13.2503 10.8778 12.8484 12.0757 12.8484C13.9392 12.8484 14.8955 13.7679 15.6548 14.9418C16.1055 13.9396 16.3197 12.5863 16.3197 10.9087C16.3197 6.7196 15.0409 4.56861 12.0538 4.56861C9.11016 4.56861 7.83832 6.7196 7.83832 10.9087C7.83832 15.0758 9.11016 17.2046 12.0538 17.2046C12.5216 17.2046 12.9454 17.152 13.3348 17.0356ZM14.0645 18.4975C13.4088 18.6782 12.7329 18.7707 12.0538 18.7726C8.13414 18.7726 4.29639 15.5684 4.29639 10.9087C4.29639 6.20486 8.13414 3 12.0538 3C16.0391 3 19.8401 6.18177 19.8401 10.9087C19.8401 13.538 18.6425 15.6747 16.9018 17.0557C17.4643 17.919 18.0432 18.4923 18.8494 18.4923C19.7293 18.4923 20.0841 17.7958 20.1435 17.2495H21.2893C21.3563 17.9769 21.0011 21 17.7988 21C15.8592 21 14.8336 19.8483 14.0645 18.4975Z" fill="#DF312C"/>
</svg>
