<svg width="25" height="24" viewBox="0 0 25 24" fill="none" xmlns="http://www.w3.org/2000/svg">
<path d="M12.2964 21C17.2669 21 21.2964 16.9706 21.2964 12C21.2964 7.02944 17.2669 3 12.2964 3C7.32582 3 3.29639 7.02944 3.29639 12C3.29639 16.9706 7.32582 21 12.2964 21Z" fill="#FF4500"/>
<path d="M18.2835 12.0858C18.2835 11.3562 17.6935 10.7768 16.9745 10.7768C16.6205 10.7768 16.2985 10.9162 16.0625 11.1416C15.1613 10.4978 13.9273 10.0794 12.5539 10.0258L13.1547 7.21462L15.1075 7.63302C15.1291 8.12662 15.5367 8.52362 16.0411 8.52362C16.5561 8.52362 16.9745 8.10522 16.9745 7.59002C16.9745 7.07502 16.5561 6.65662 16.0411 6.65662C15.6763 6.65662 15.3543 6.87122 15.2041 7.18242L13.0261 6.72102C12.9617 6.71022 12.8973 6.72102 12.8543 6.75322C12.8007 6.78542 12.7685 6.83902 12.7579 6.90342L12.0925 10.0364C10.6977 10.0794 9.44233 10.4978 8.53033 11.1524C8.29433 10.927 7.97233 10.7876 7.61833 10.7876C6.88873 10.7876 6.30933 11.3776 6.30933 12.0966C6.30933 12.633 6.63113 13.0836 7.08193 13.2876C7.06033 13.4162 7.04973 13.545 7.04973 13.6846C7.04973 15.7016 9.39953 17.3434 12.2965 17.3434C15.1935 17.3434 17.5433 15.7124 17.5433 13.6846C17.5433 13.5558 17.5325 13.4162 17.5111 13.2876C17.9617 13.0836 18.2835 12.6222 18.2835 12.0858ZM9.29213 13.0192C9.29213 12.5042 9.71053 12.0858 10.2257 12.0858C10.7407 12.0858 11.1591 12.5042 11.1591 13.0192C11.1591 13.5342 10.7407 13.9528 10.2257 13.9528C9.71053 13.9634 9.29213 13.5342 9.29213 13.0192ZM14.5175 15.4978C13.8737 16.1416 12.6505 16.1846 12.2965 16.1846C11.9317 16.1846 10.7085 16.1308 10.0753 15.4978C9.97893 15.4012 9.97893 15.251 10.0753 15.1544C10.1719 15.058 10.3221 15.058 10.4187 15.1544C10.8265 15.5622 11.6849 15.7016 12.2965 15.7016C12.9081 15.7016 13.7771 15.5622 14.1741 15.1544C14.2707 15.058 14.4209 15.058 14.5175 15.1544C14.6033 15.251 14.6033 15.4012 14.5175 15.4978ZM14.3457 13.9634C13.8307 13.9634 13.4123 13.545 13.4123 13.03C13.4123 12.515 13.8307 12.0966 14.3457 12.0966C14.8609 12.0966 15.2793 12.515 15.2793 13.03C15.2793 13.5342 14.8609 13.9634 14.3457 13.9634Z" fill="white"/>
</svg>
