<svg width="29" height="31" viewBox="0 0 29 31" fill="none" xmlns="http://www.w3.org/2000/svg">
<g filter="url(#filter0_d_46_3602)">
<path d="M22.7499 13.07V11.9225L24.1899 10.6625C24.4554 10.4285 24.6296 10.1083 24.6817 9.7583C24.7339 9.40833 24.6606 9.05119 24.4749 8.75L22.7049 5.75C22.5734 5.5222 22.3843 5.33299 22.1566 5.20135C21.9288 5.06971 21.6705 5.00027 21.4074 5C21.2444 4.99875 21.0823 5.02408 20.9274 5.075L19.1049 5.69C18.7903 5.48091 18.4621 5.29299 18.1224 5.1275L17.7399 3.2375C17.6714 2.8922 17.4835 2.58203 17.2093 2.36128C16.9351 2.14052 16.5919 2.02325 16.2399 2.03H12.7299C12.378 2.02325 12.0348 2.14052 11.7606 2.36128C11.4864 2.58203 11.2985 2.8922 11.2299 3.2375L10.8474 5.1275C10.5054 5.29295 10.1747 5.48086 9.85745 5.69L8.07245 5.045C7.91592 5.00422 7.75383 4.98902 7.59245 5C7.3294 5.00027 7.07105 5.06971 6.84332 5.20135C6.61558 5.33299 6.42647 5.5222 6.29495 5.75L4.52495 8.75C4.34989 9.05074 4.28483 9.40299 4.34093 9.74642C4.39703 10.0899 4.57079 10.4031 4.83245 10.6325L6.24995 11.93V13.0775L4.83245 14.3375C4.5634 14.5685 4.38489 14.8873 4.32859 15.2375C4.2723 15.5876 4.34187 15.9463 4.52495 16.25L6.29495 19.25C6.42647 19.4778 6.61558 19.667 6.84332 19.7987C7.07105 19.9303 7.3294 19.9997 7.59245 20C7.75546 20.0012 7.91758 19.9759 8.07245 19.925L9.89495 19.31C10.2096 19.5191 10.5378 19.707 10.8774 19.8725L11.2599 21.7625C11.3285 22.1078 11.5164 22.418 11.7906 22.6387C12.0648 22.8595 12.408 22.9767 12.7599 22.97H16.2999C16.6519 22.9767 16.9951 22.8595 17.2693 22.6387C17.5435 22.418 17.7314 22.1078 17.7999 21.7625L18.1824 19.8725C18.5245 19.7071 18.8552 19.5191 19.1724 19.31L20.9874 19.925C21.1423 19.9759 21.3044 20.0012 21.4674 20C21.7305 19.9997 21.9888 19.9303 22.2166 19.7987C22.4443 19.667 22.6334 19.4778 22.7649 19.25L24.4749 16.25C24.65 15.9493 24.7151 15.597 24.659 15.2536C24.6029 14.9101 24.4291 14.5969 24.1674 14.3675L22.7499 13.07ZM21.4074 18.5L18.8349 17.63C18.2327 18.1401 17.5445 18.5388 16.8024 18.8075L16.2699 21.5H12.7299L12.1974 18.8375C11.4613 18.5612 10.7767 18.1631 10.1724 17.66L7.59245 18.5L5.82245 15.5L7.86245 13.7C7.72377 12.9236 7.72377 12.1289 7.86245 11.3525L5.82245 9.5L7.59245 6.5L10.1649 7.37C10.7671 6.85992 11.4554 6.46119 12.1974 6.1925L12.7299 3.5H16.2699L16.8024 6.1625C17.5386 6.43882 18.2232 6.83686 18.8274 7.34L21.4074 6.5L23.1774 9.5L21.1374 11.3C21.2761 12.0764 21.2761 12.8711 21.1374 13.6475L23.1774 15.5L21.4074 18.5Z" fill="black"/>
<path d="M14.5 17C13.61 17 12.74 16.7361 11.9999 16.2416C11.2599 15.7471 10.6831 15.0443 10.3425 14.2221C10.0019 13.3998 9.91283 12.495 10.0865 11.6221C10.2601 10.7492 10.6887 9.94736 11.318 9.31802C11.9474 8.68868 12.7492 8.2601 13.6221 8.08647C14.495 7.91283 15.3998 8.00195 16.2221 8.34254C17.0443 8.68314 17.7471 9.25991 18.2416 9.99994C18.7361 10.74 19 11.61 19 12.5C19.006 13.0926 18.8937 13.6805 18.6697 14.2292C18.4457 14.7779 18.1145 15.2763 17.6954 15.6954C17.2763 16.1145 16.7779 16.4457 16.2292 16.6697C15.6805 16.8937 15.0926 17.006 14.5 17ZM14.5 9.5C14.1035 9.49077 13.7093 9.56205 13.3411 9.70954C12.973 9.85704 12.6386 10.0777 12.3581 10.3581C12.0777 10.6386 11.857 10.973 11.7095 11.3411C11.562 11.7093 11.4908 12.1035 11.5 12.5C11.4908 12.8965 11.562 13.2907 11.7095 13.6589C11.857 14.027 12.0777 14.3615 12.3581 14.6419C12.6386 14.9223 12.973 15.143 13.3411 15.2905C13.7093 15.438 14.1035 15.5092 14.5 15.5C14.8965 15.5092 15.2907 15.438 15.6589 15.2905C16.027 15.143 16.3615 14.9223 16.6419 14.6419C16.9223 14.3615 17.143 14.027 17.2905 13.6589C17.438 13.2907 17.5092 12.8965 17.5 12.5C17.5092 12.1035 17.438 11.7093 17.2905 11.3411C17.143 10.973 16.9223 10.6386 16.6419 10.3581C16.3615 10.0777 16.027 9.85704 15.6589 9.70954C15.2907 9.56205 14.8965 9.49077 14.5 9.5Z" fill="black"/>
</g>
<defs>
<filter id="filter0_d_46_3602" x="-1.5" y="0.5" width="32" height="32" filterUnits="userSpaceOnUse" color-interpolation-filters="sRGB">
<feFlood flood-opacity="0" result="BackgroundImageFix"/>
<feColorMatrix in="SourceAlpha" type="matrix" values="0 0 0 0 0 0 0 0 0 0 0 0 0 0 0 0 0 0 127 0" result="hardAlpha"/>
<feOffset dy="4"/>
<feGaussianBlur stdDeviation="2"/>
<feComposite in2="hardAlpha" operator="out"/>
<feColorMatrix type="matrix" values="0 0 0 0 0 0 0 0 0 0 0 0 0 0 0 0 0 0 0.25 0"/>
<feBlend mode="normal" in2="BackgroundImageFix" result="effect1_dropShadow_46_3602"/>
<feBlend mode="normal" in="SourceGraphic" in2="effect1_dropShadow_46_3602" result="shape"/>
</filter>
</defs>
</svg>
