<svg width="25" height="24" viewBox="0 0 25 24" fill="none" xmlns="http://www.w3.org/2000/svg">
<path d="M18.1614 6.49876C18.147 6.41202 18.0747 6.35419 18.0024 6.35419C17.9301 6.35419 16.5566 6.25298 16.5566 6.25298C16.5566 6.25298 15.6024 5.29876 15.4867 5.19756C15.3855 5.09635 15.1687 5.12527 15.0964 5.15419C15.0819 5.15419 14.8795 5.21202 14.5614 5.31322C14.2434 4.38792 13.6795 3.53491 12.6819 3.53491C12.653 3.53491 12.6241 3.53491 12.5952 3.53491C12.306 3.15901 11.959 2.99997 11.6554 2.99997C9.32771 2.99997 8.21446 5.90599 7.86747 7.38069C6.97109 7.65539 6.32048 7.8578 6.24819 7.88672C5.74217 8.04575 5.72771 8.06021 5.66988 8.53732C5.61205 8.88431 4.29639 19.0771 4.29639 19.0771L14.5614 21L20.1277 19.8C20.1277 19.8 18.1759 6.59997 18.1614 6.49876ZM13.9831 5.48672C13.7229 5.57346 13.4337 5.66021 13.1157 5.76142C13.1157 5.70358 13.1157 5.64575 13.1157 5.57346C13.1157 4.99515 13.0289 4.5325 12.9133 4.17105C13.4337 4.22889 13.7663 4.8072 13.9831 5.48672ZM12.2771 4.27226C12.4217 4.6337 12.5084 5.13973 12.5084 5.8337C12.5084 5.86262 12.5084 5.90599 12.5084 5.93491C11.9446 6.1084 11.3229 6.29636 10.7157 6.48431C11.0627 5.16864 11.7133 4.51804 12.2771 4.27226ZM11.5831 3.62166C11.6843 3.62166 11.7855 3.65057 11.8867 3.72286C11.1494 4.06985 10.3398 4.95178 10.0072 6.71563C9.51566 6.87467 9.03856 7.01925 8.59036 7.14937C8.98072 5.80479 9.92048 3.62166 11.5831 3.62166Z" fill="#95BF47"/>
<path d="M18.002 6.3544C17.9297 6.3544 16.5562 6.2532 16.5562 6.2532C16.5562 6.2532 15.602 5.29898 15.4863 5.19778C15.443 5.1544 15.3996 5.13995 15.3418 5.12549L14.561 21.0002L20.1273 19.8002C20.1273 19.8002 18.1755 6.60019 18.161 6.51344C18.1466 6.41224 18.0598 6.36886 18.002 6.3544Z" fill="#5E8E3E"/>
<path d="M12.6676 9.43379L11.9881 11.4723C11.9881 11.4723 11.3808 11.1543 10.6579 11.1543C9.5736 11.1543 9.53023 11.8338 9.53023 12.0073C9.53023 12.9326 11.9591 13.294 11.9591 15.4772C11.9591 17.1976 10.8748 18.2964 9.40011 18.2964C7.63625 18.2964 6.73987 17.1976 6.73987 17.1976L7.21698 15.6362C7.21698 15.6362 8.14228 16.4314 8.923 16.4314C9.42903 16.4314 9.64589 16.0266 9.64589 15.7374C9.64589 14.5229 7.65071 14.4651 7.65071 12.4699C7.65071 10.7928 8.85071 9.15909 11.2941 9.15909C12.2049 9.15909 12.6676 9.43379 12.6676 9.43379Z" fill="white"/>
</svg>
