<svg width="25" height="24" viewBox="0 0 25 24" fill="none" xmlns="http://www.w3.org/2000/svg">
<path d="M12.3749 19.0484C8.81576 19.0484 4.7717 14.7529 5.09512 11.1868C5.41854 7.78297 9.94829 4.62223 13.3049 5.10849C16.2574 5.51346 18.8865 9.24177 18.7242 12.2C18.5631 15.3197 15.4889 19.0484 12.3749 19.0484Z" fill="white"/>
<path d="M14.9232 20.8712C14.6802 20.7902 14.3162 20.7093 14.1141 20.628C13.8714 20.5068 13.5882 20.5068 12.6987 20.5471C11.8494 20.5874 11.4043 20.5471 10.798 20.4658C7.56231 19.899 4.97382 17.5486 4.04376 14.3069C3.88186 13.6991 3.84167 13.375 3.84167 11.9162C3.84167 10.3355 3.8011 10.2143 3.59901 9.56581C2.42629 6.36442 4.8123 3.00119 8.20953 3.00119C8.89693 3.00119 9.74624 3.20406 10.2316 3.44681C10.5554 3.60903 10.7574 3.64929 12.0109 3.64929C13.1435 3.64929 13.5882 3.68994 14.1543 3.85216C16.7026 4.50064 18.7648 6.16193 19.8568 8.4717C20.5442 9.88986 20.7872 11.349 20.6249 13.01C20.5442 13.9019 20.5442 13.9829 20.7463 14.5094C21.3935 16.4142 20.7868 18.602 19.2095 19.899C18.7239 20.3043 17.7536 20.75 17.1469 20.9122C16.5399 21.0337 15.5697 21.0338 14.9626 20.8715H14.9232V20.8712ZM13.8309 17.7511C15.1659 17.4677 16.3382 16.657 16.7833 15.6848C17.3494 14.5094 17.1875 13.1315 16.4194 12.2805C15.7721 11.5511 14.8015 11.1462 12.4962 10.579C10.9592 10.2143 10.5952 10.0521 10.2717 9.68737C9.98852 9.36294 9.94795 9.12019 10.191 8.75549C10.4336 8.35014 11.0403 8.107 11.849 8.06673C13.0221 7.98582 13.5476 8.26922 14.235 9.36332C14.7609 10.174 15.2864 10.3765 15.9746 10.0521C16.8641 9.60645 16.7833 8.14765 15.8123 7.29668C14.8823 6.52701 13.8714 6.20258 12.1724 6.20258C10.3931 6.20258 9.1794 6.56728 8.37067 7.3776C7.72345 8.02608 7.6025 8.39079 7.6025 9.40359C7.6025 10.457 7.72383 10.7811 8.41124 11.3893C9.13921 12.0781 9.74586 12.3216 11.9294 12.8481C13.4665 13.2128 13.8711 13.4153 14.2347 13.8207C14.3969 14.0235 14.4777 14.1854 14.4777 14.5501C14.4777 14.9554 14.4371 15.0363 14.1137 15.3608C13.6284 15.8466 12.9004 16.0491 11.9704 16.0092C10.8784 15.9279 10.3931 15.6039 9.827 14.4691C9.42244 13.6995 9.09902 13.4157 8.57314 13.4157C7.40003 13.4157 6.99585 14.3882 7.6025 15.6442C8.12839 16.7386 9.17978 17.468 10.5144 17.7514C11.3231 17.9137 13.1029 17.9137 13.8714 17.7514H13.8309V17.7511Z" fill="#00AFF0"/>
</svg>
