<svg width="25" height="24" viewBox="0 0 25 24" fill="none" xmlns="http://www.w3.org/2000/svg">
<path fill-rule="evenodd" clip-rule="evenodd" d="M9.896 3C8.90098 3.00073 8.0957 3.80661 8.09644 4.79963C8.0957 5.79266 8.90171 6.59853 9.89673 6.59927H11.697V4.80037C11.6978 3.80734 10.8917 3.00147 9.896 3C9.89673 3 9.89673 3 9.896 3V3ZM9.896 7.8H5.09668C4.10167 7.80073 3.29565 8.60661 3.29639 9.59963C3.29492 10.5927 4.10093 11.3985 5.09595 11.4H9.896C10.891 11.3993 11.697 10.5934 11.6963 9.60037C11.697 8.60661 10.891 7.80073 9.896 7.8Z" fill="#36C5F0"/>
<path fill-rule="evenodd" clip-rule="evenodd" d="M21.296 9.59963C21.2968 8.60661 20.4907 7.80073 19.4957 7.8C18.5007 7.80073 17.6946 8.60661 17.6954 9.59963V11.4H19.4957C20.4907 11.3993 21.2968 10.5934 21.296 9.59963ZM16.4959 9.59963V4.79963C16.4966 3.80734 15.6913 3.00147 14.6963 3C13.7013 3.00073 12.8953 3.80661 12.896 4.79963V9.59963C12.8945 10.5927 13.7006 11.3985 14.6956 11.4C15.6906 11.3993 16.4966 10.5934 16.4959 9.59963Z" fill="#2EB67D"/>
<path fill-rule="evenodd" clip-rule="evenodd" d="M14.6963 20.9999C15.6913 20.9991 16.4974 20.1932 16.4966 19.2002C16.4974 18.2072 15.6913 17.4013 14.6963 17.4006H12.896V19.2002C12.8953 20.1925 13.7013 20.9984 14.6963 20.9999ZM14.6963 16.1991H19.4964C20.4915 16.1984 21.2975 15.3925 21.2968 14.3995C21.2982 13.4065 20.4922 12.6006 19.4972 12.5991H14.6971C13.702 12.5999 12.896 13.4057 12.8967 14.3988C12.896 15.3925 13.7013 16.1984 14.6963 16.1991Z" fill="#ECB22E"/>
<path fill-rule="evenodd" clip-rule="evenodd" d="M3.29639 14.3995C3.29565 15.3926 4.10167 16.1985 5.09669 16.1992C6.09172 16.1985 6.89774 15.3926 6.897 14.3995V12.5999H5.09669C4.10167 12.6006 3.29565 13.4065 3.29639 14.3995ZM8.09647 14.3995V19.1996C8.095 20.1927 8.90102 20.9985 9.89604 21C10.8911 20.9993 11.6971 20.1934 11.6963 19.2003V14.401C11.6978 13.408 10.8918 12.6021 9.89678 12.6006C8.90102 12.6006 8.09574 13.4065 8.09647 14.3995C8.09647 14.4003 8.09647 14.3995 8.09647 14.3995Z" fill="#E01E5A"/>
</svg>
