<svg width="25" height="24" viewBox="0 0 25 24" fill="none" xmlns="http://www.w3.org/2000/svg">
<path d="M18.6052 17.2746C19.3408 17.1568 20.8767 16.8786 20.9194 16.1369C20.9314 15.9285 20.7859 15.7432 20.582 15.7102V15.7095C18.3119 15.3285 16.8826 12.7151 17.1031 12.1924C17.2621 11.8144 17.9715 11.6682 18.2842 11.5452C19.781 10.9452 19.1361 9.9186 18.252 9.9186C17.8537 9.9186 17.3813 10.3506 16.9456 10.1473C17.0806 7.84882 17.3206 6.22974 15.6947 4.6639C13.5844 2.63462 9.3024 2.87084 7.84155 6.20499C7.40734 7.19414 7.57383 9.0022 7.64357 10.1473C7.3361 10.2846 6.89665 10.1368 6.59293 9.99134C5.82726 9.62688 4.5179 10.8245 6.30721 11.5444C7.08263 11.8541 7.81605 11.9426 7.40659 12.7901C7.36235 12.871 7.11338 13.489 6.52919 14.1804C4.84486 16.1759 3.31053 15.36 3.71398 16.3162V16.3177C3.96971 16.9259 5.32856 17.1696 5.98549 17.2746C6.16623 17.6188 6.03499 18.4092 6.65067 18.4092C6.98139 18.4092 7.61132 18.1355 8.59822 18.3042C9.92858 18.5307 11.4397 21.3444 14.7836 18.9432L14.7843 18.9417C15.505 18.4242 16.0112 18.041 17.544 18.3485C18.6554 18.5674 18.3464 17.7868 18.6052 17.2746Z" fill="#FFEB3B"/>
<path d="M12.2547 20.2593C12.2675 20.2615 12.23 20.2638 12.191 20.2638C11.0031 20.2638 10.2195 19.6998 9.58952 19.2461C7.28801 17.5888 6.25237 20.1048 5.69743 17.6068C2.51626 17.0421 3.14095 15.4733 3.95011 15.339C4.88226 15.1815 5.64343 14.6498 6.24412 13.9389C6.63783 13.4732 7.21377 12.5028 7.14328 12.3363C7.06828 12.1564 6.38885 11.9816 6.16913 11.8931C3.90662 10.9812 5.5167 9.06668 6.75332 9.65237C6.97004 9.75661 7.13203 9.80085 7.24826 9.8181C7.17927 8.69247 7.06078 7.05164 7.49874 6.05425C9.2753 1.99417 15.3084 1.96943 17.0932 6.055C17.5327 7.05539 17.4119 8.69247 17.343 9.80235C17.7097 9.71086 18.1191 9.3749 18.7716 9.64487C19.7914 10.0161 20.0449 11.3929 18.1461 11.9891C17.9736 12.0454 17.5102 12.1946 17.4502 12.3378C17.3625 12.5478 18.5353 14.9866 20.6456 15.3405C21.0386 15.4058 21.3183 15.7575 21.295 16.1594C21.241 17.1118 19.8447 17.4381 18.8968 17.6068C18.7581 18.2345 18.6553 18.7729 17.9624 18.7729C16.7775 18.7032 16.4018 18.242 15.0047 19.2484C14.1783 19.8393 13.3654 20.329 12.2547 20.2593ZM14.4933 18.6904C16.1903 17.4703 16.6035 17.924 17.9609 18.0222C18.1236 18.0222 18.0074 17.7425 18.3568 16.9349C18.6538 16.8756 20.3329 16.6394 20.5309 16.1722H20.5301L20.5196 16.0807C17.9939 15.6562 16.8938 13.0645 16.848 12.9543C16.0988 11.4124 18.1656 11.4252 18.7011 10.8665C18.9185 10.6385 18.7626 10.439 18.4986 10.343C18.0501 10.1571 17.9001 10.5425 17.2005 10.5748C16.8428 10.559 16.7603 10.4615 16.5555 10.379C16.722 8.04154 16.9515 6.39546 15.4344 4.93387C13.5191 3.09206 9.54227 3.25329 8.18567 6.35497C7.77696 7.28487 7.95994 9.16717 8.03493 10.3843C7.8902 10.412 7.48449 10.8365 6.43085 10.3288C6.14213 10.1916 5.13199 10.6655 6.44735 11.1965C6.80131 11.3382 7.60223 11.4897 7.8347 12.0476C8.19167 12.907 6.4556 15.678 4.07235 16.0784V16.0792L4.0596 16.1722C4.27108 16.6761 6.15488 16.9101 6.22987 16.9334C6.57783 17.771 6.35286 17.2888 6.54784 17.9607C6.62733 18.2307 7.29251 17.696 8.66262 17.9345C10.0942 18.1782 11.4958 20.8374 14.4933 18.6904Z" fill="#212121"/>
</svg>
