<svg width="25" height="24" viewBox="0 0 25 24" fill="none" xmlns="http://www.w3.org/2000/svg">
<path d="M3.29639 15.6873C3.29639 15.9242 3.37737 16.1033 3.53929 16.2247C3.70123 16.3461 3.87433 16.389 4.0586 16.3535C4.2317 16.318 4.35315 16.2528 4.42297 16.1581C4.49276 16.0633 4.52767 15.9064 4.52767 15.6873V13.1113C4.52767 12.9277 4.46765 12.7723 4.34759 12.645C4.22755 12.5176 4.08097 12.454 3.90785 12.454C3.74033 12.454 3.59655 12.5176 3.47649 12.645C3.35643 12.7723 3.29639 12.9277 3.29639 13.1113V15.6873ZM5.22286 16.7888C5.22286 16.9605 5.2801 17.0893 5.39457 17.1752C5.50905 17.2611 5.65564 17.304 5.83431 17.304C6.01858 17.304 6.16794 17.261 6.28242 17.1752C6.39689 17.0893 6.45414 16.9605 6.45414 16.7888V10.784C6.45414 10.6064 6.39409 10.4539 6.27405 10.3266C6.15399 10.1993 6.00741 10.1356 5.83431 10.1356C5.66679 10.1356 5.52299 10.1993 5.40295 10.3266C5.28288 10.4539 5.22286 10.6064 5.22286 10.784V16.7888ZM7.14097 17.073C7.14097 17.2447 7.1996 17.3735 7.31686 17.4594C7.43412 17.5453 7.58489 17.5882 7.76918 17.5882C7.94786 17.5882 8.09443 17.5453 8.2089 17.4594C8.32338 17.3735 8.38063 17.2447 8.38063 17.073V11.5924C8.38063 11.4088 8.32059 11.2519 8.20054 11.1216C8.08048 10.9913 7.9367 10.9262 7.76918 10.9262C7.59606 10.9262 7.4481 10.9913 7.32525 11.1216C7.20241 11.2519 7.14098 11.4088 7.14098 11.5924V17.073H7.14097ZM9.06744 17.0996C9.06744 17.4254 9.27405 17.5882 9.68726 17.5882C10.1005 17.5882 10.3071 17.4254 10.3071 17.0996V8.21694C10.3071 7.7195 10.1647 7.43822 9.87989 7.37307C9.69562 7.3257 9.51413 7.38196 9.33546 7.54184C9.15677 7.70173 9.06742 7.92675 9.06742 8.21693V17.0996H9.06744ZM11.0274 17.3573V7.69285C11.0274 7.38493 11.114 7.20135 11.2871 7.14212C11.6612 7.04738 12.0326 7 12.4011 7C13.2554 7 14.0512 7.21319 14.7882 7.63956C15.5253 8.06593 16.1214 8.64775 16.5765 9.38501C17.0316 10.1223 17.2955 10.935 17.368 11.8233C17.7087 11.6694 18.0716 11.5924 18.4569 11.5924C19.2387 11.5924 19.9074 11.8855 20.463 12.4718C21.0186 13.058 21.2964 13.7627 21.2964 14.5859C21.2964 15.4149 21.0186 16.1226 20.463 16.7088C19.9074 17.2951 19.2415 17.5882 18.4653 17.5882L11.1782 17.5794C11.1279 17.5616 11.0902 17.529 11.0651 17.4816C11.0399 17.4343 11.0274 17.3928 11.0274 17.3573Z" fill="url(#paint0_linear_18_1681)"/>
<defs>
<linearGradient id="paint0_linear_18_1681" x1="12.3156" y1="7.28811" x2="12.3156" y2="17.3769" gradientUnits="userSpaceOnUse">
<stop stop-color="#FF8800"/>
<stop offset="1" stop-color="#FF3300"/>
</linearGradient>
</defs>
</svg>
