<svg width="25" height="24" viewBox="0 0 25 24" fill="none" xmlns="http://www.w3.org/2000/svg">
<path d="M12.2964 3C7.32566 3 3.29639 7.02927 3.29639 12C3.29639 16.9707 7.32566 21 12.2964 21C17.2671 21 21.2964 16.9707 21.2964 12C21.2964 7.02989 17.2671 3.00061 12.2964 3ZM16.4239 15.9801C16.2624 16.2454 15.9167 16.3284 15.6526 16.1668C13.5394 14.8753 10.879 14.5836 7.74634 15.2991C7.44419 15.3685 7.14327 15.1793 7.07448 14.8772C7.00509 14.575 7.19362 14.2741 7.49639 14.2053C10.9244 13.4223 13.8655 13.7595 16.2378 15.2088C16.5019 15.3715 16.586 15.7161 16.4239 15.9801ZM17.525 13.5304C17.3218 13.8608 16.8894 13.964 16.5596 13.7613C14.1412 12.2745 10.4528 11.844 7.59158 12.7124C7.22064 12.8248 6.82883 12.6154 6.71583 12.245C6.60406 11.8741 6.81348 11.4829 7.1838 11.3699C10.4522 10.3781 14.5158 10.8583 17.2935 12.5656C17.6239 12.7689 17.7283 13.2006 17.525 13.5304ZM17.6196 10.9781C14.7185 9.25548 9.93323 9.09703 7.16353 9.93715C6.7189 10.0723 6.24848 9.82108 6.11399 9.37646C5.9795 8.93183 6.23006 8.46141 6.6753 8.3263C9.85463 7.36151 15.1392 7.5476 18.4788 9.52999C18.8786 9.76766 19.01 10.2841 18.7729 10.6833C18.5365 11.0837 18.0188 11.2158 17.6196 10.9781Z" fill="#2EBD59"/>
</svg>
