<svg width="25" height="24" viewBox="0 0 25 24" fill="none" xmlns="http://www.w3.org/2000/svg">
<path d="M19.4964 3H5.09639C4.10227 3 3.29639 3.80589 3.29639 4.8V19.2C3.29639 20.1941 4.10227 21 5.09639 21H19.4964C20.4905 21 21.2964 20.1941 21.2964 19.2V4.8C21.2964 3.80589 20.4905 3 19.4964 3Z" fill="#6772E5"/>
<path fill-rule="evenodd" clip-rule="evenodd" d="M11.4924 9.73198C11.4924 9.26398 11.8764 9.08398 12.5124 9.08398C13.4244 9.08398 14.5764 9.35998 15.4884 9.85198V7.03198C14.4924 6.63598 13.5084 6.47998 12.5124 6.47998C10.0764 6.47998 8.45642 7.75198 8.45642 9.87598C8.45642 13.188 13.0164 12.66 13.0164 14.088C13.0164 14.64 12.5364 14.82 11.8644 14.82C10.8684 14.82 9.59642 14.412 8.58842 13.86V16.716C9.70442 17.196 10.8324 17.4 11.8644 17.4C14.3604 17.4 16.0764 16.164 16.0764 14.016C16.0644 10.44 11.4924 11.076 11.4924 9.73198Z" fill="white"/>
</svg>
