<svg width="25" height="24" viewBox="0 0 25 24" fill="none" xmlns="http://www.w3.org/2000/svg">
<path d="M12.2964 21C17.2669 21 21.2964 16.9706 21.2964 12C21.2964 7.02944 17.2669 3 12.2964 3C7.32582 3 3.29639 7.02944 3.29639 12C3.29639 16.9706 7.32582 21 12.2964 21Z" fill="url(#paint0_linear_18_1600)"/>
<path d="M9.38818 12.658L10.456 15.6135C10.456 15.6135 10.5895 15.89 10.7324 15.89C10.8754 15.89 13.0015 13.6781 13.0015 13.6781L15.3659 9.11133L9.42628 11.8951L9.38818 12.658Z" fill="#C8DAEA"/>
<path d="M10.8048 13.416L10.5998 15.5945C10.5998 15.5945 10.514 16.262 11.1813 15.5945C11.8487 14.927 12.4875 14.4122 12.4875 14.4122" fill="#A9C6D8"/>
<path d="M9.40828 12.7632L7.21183 12.0476C7.21183 12.0476 6.94933 11.9411 7.03386 11.6996C7.05126 11.6498 7.08636 11.6074 7.19136 11.5346C7.67803 11.1953 16.1993 8.13257 16.1993 8.13257C16.1993 8.13257 16.4399 8.0515 16.5818 8.10542C16.6169 8.11629 16.6485 8.13628 16.6733 8.16336C16.6982 8.19044 16.7154 8.22364 16.7232 8.25955C16.7385 8.32297 16.7449 8.38823 16.7422 8.45342C16.7416 8.50982 16.7347 8.5621 16.7296 8.64407C16.6777 9.48145 15.1246 15.731 15.1246 15.731C15.1246 15.731 15.0316 16.0967 14.6987 16.1093C14.6169 16.1119 14.5354 16.0981 14.459 16.0685C14.3827 16.039 14.3131 15.9944 14.2543 15.9374C13.601 15.3754 11.3429 13.8578 10.8439 13.5241C10.8327 13.5164 10.8232 13.5064 10.8161 13.4948C10.8091 13.4831 10.8046 13.4701 10.803 13.4566C10.796 13.4214 10.8343 13.3778 10.8343 13.3778C10.8343 13.3778 14.7662 9.88285 14.8708 9.51595C14.8789 9.48752 14.8483 9.4735 14.8072 9.48595C14.5461 9.58202 10.0189 12.4409 9.51928 12.7565C9.48332 12.7674 9.4453 12.7697 9.40828 12.7632Z" fill="white"/>
<defs>
<linearGradient id="paint0_linear_18_1600" x1="12.2964" y1="21" x2="12.2964" y2="3" gradientUnits="userSpaceOnUse">
<stop stop-color="#1D93D2"/>
<stop offset="1" stop-color="#38B0E3"/>
</linearGradient>
</defs>
</svg>
