<svg width="25" height="24" viewBox="0 0 25 24" fill="none" xmlns="http://www.w3.org/2000/svg">
<path d="M10.4966 10.0889V9.3875C10.2532 9.34895 10.0075 9.32782 9.76111 9.32429C7.37613 9.3192 5.26466 10.8657 4.54845 13.142C3.83224 15.4182 4.67764 17.8962 6.63526 19.2591C5.9174 18.4903 5.43725 17.5301 5.25276 16.4943C5.06827 15.4585 5.18734 14.3914 5.59559 13.4219C6.00384 12.4523 6.68382 11.6217 7.55345 11.0303C8.42308 10.4389 9.44519 10.112 10.4964 10.089L10.4966 10.0889Z" fill="#25F4EE"/>
<path d="M10.6288 18.0345C11.9622 18.0326 13.0583 16.9815 13.1167 15.6485V3.75319H15.2884C15.2441 3.50462 15.223 3.25248 15.2253 3L12.2547 3V14.8838C12.2053 16.2236 11.1066 17.2848 9.76681 17.287C9.36642 17.2836 8.97256 17.1851 8.61768 16.9996C8.84768 17.3184 9.14975 17.5784 9.49924 17.7582C9.84873 17.9381 10.2358 18.0327 10.6288 18.0345ZM19.345 7.78913V7.12796C18.5457 7.12828 17.7641 6.89228 17.0984 6.4496C17.682 7.12844 18.4706 7.59865 19.345 7.78913Z" fill="#25F4EE"/>
<path d="M17.0981 6.44978C16.4423 5.70257 16.0808 4.74201 16.0811 3.74756H15.2881C15.3905 4.29738 15.6038 4.82055 15.915 5.28515C16.2262 5.74974 16.6288 6.14602 17.0981 6.44978ZM9.76074 12.2968C9.2046 12.2996 8.66535 12.4884 8.22875 12.8332C7.79215 13.1779 7.48324 13.6587 7.35115 14.1993C7.21905 14.7399 7.27135 15.3091 7.49972 15.8166C7.7281 16.324 8.11944 16.7404 8.61153 16.9997C8.34248 16.628 8.18136 16.1891 8.14598 15.7315C8.11059 15.2739 8.20231 14.8154 8.41101 14.4067C8.61971 13.998 8.93725 13.655 9.32857 13.4156C9.71989 13.1761 10.1697 13.0496 10.6284 13.0499C10.8778 13.0532 11.1254 13.092 11.3638 13.1653V10.1408C11.1203 10.1043 10.8746 10.0851 10.6284 10.0833H10.4962V12.383C10.2565 12.3187 10.0088 12.2897 9.76074 12.2968Z" fill="#FE2C55"/>
<path d="M19.345 7.78906V10.0888C17.8653 10.0859 16.424 9.61728 15.2253 8.74921V14.7917C15.2189 17.8069 12.7744 20.2479 9.7611 20.2479C8.64198 20.2499 7.54981 19.9044 6.63525 19.259C7.38102 20.0616 8.35106 20.6209 9.41903 20.864C10.487 21.1072 11.6034 21.0228 12.6228 20.6221C13.6422 20.2213 14.5173 19.5226 15.1342 18.617C15.7511 17.7115 16.0812 16.641 16.0814 15.5451V9.51967C17.2842 10.382 18.7272 10.8446 20.2069 10.842V7.88084C19.9172 7.87998 19.6284 7.84922 19.345 7.78906Z" fill="#FE2C55"/>
<path d="M15.2253 14.7919V8.74934C16.4277 9.61247 17.871 10.0751 19.3507 10.0717V7.772C18.4765 7.58727 17.686 7.12316 17.0985 6.44966C16.6291 6.14589 16.2266 5.74962 15.9154 5.28503C15.6042 4.82043 15.3909 4.29726 15.2885 3.74744H13.1167V15.6487C13.0956 16.1667 12.9137 16.6653 12.5963 17.0752C12.2789 17.485 11.8419 17.7857 11.3458 17.9356C10.8498 18.0854 10.3194 18.0769 9.82841 17.9113C9.33742 17.7456 8.91019 17.431 8.6061 17.0112C8.11392 16.752 7.72249 16.3355 7.49406 15.8281C7.26563 15.3206 7.2133 14.7513 7.34541 14.2107C7.47751 13.6701 7.78646 13.1891 8.22313 12.8444C8.65979 12.4997 9.19911 12.3109 9.75531 12.3082C10.0048 12.3104 10.2525 12.3491 10.4908 12.4232V10.1234C9.4339 10.1414 8.40508 10.4666 7.52974 11.0595C6.65441 11.6524 5.97039 12.4873 5.56108 13.4625C5.15176 14.4376 5.03485 15.5109 5.22458 16.5514C5.41432 17.5919 5.90251 18.5546 6.62963 19.3223C7.55317 19.9464 8.64689 20.2697 9.76112 20.248C12.7744 20.248 15.219 17.807 15.2253 14.7919Z" fill="black"/>
</svg>
