<svg width="25" height="24" viewBox="0 0 25 24" fill="none" xmlns="http://www.w3.org/2000/svg">
<path d="M8.99204 10.2874C8.96521 10.2874 8.94732 10.2874 8.92943 10.2696C8.32123 9.46679 8.16918 8.08422 8.13341 7.55796C8.12446 7.45538 8.00819 7.40186 7.91875 7.45092C6.04049 8.49899 4.29639 10.9876 4.29639 13.387C4.29639 17.5213 7.17191 20.9867 12.1225 20.9867C16.76 20.9867 19.9486 17.4188 19.9486 13.3915C19.9486 8.12436 16.1786 4.63673 12.8201 3.05793C12.7307 3.01333 12.6323 3.08915 12.6412 3.18281C13.0795 6.02376 12.4802 9.10554 8.98757 10.2963L8.99204 10.2874Z" fill="url(#paint0_radial_18_1673)"/>
<defs>
<radialGradient id="paint0_radial_18_1673" cx="0" cy="0" r="1" gradientUnits="userSpaceOnUse" gradientTransform="translate(12.1225 20.9867) scale(15.6522 17.9419)">
<stop stop-color="#FF7854"/>
<stop offset="1" stop-color="#FD267D"/>
</radialGradient>
</defs>
</svg>
