<svg width="25" height="24" viewBox="0 0 25 24" fill="none" xmlns="http://www.w3.org/2000/svg">
<path d="M19.5386 3H5.0542C4.08339 3 3.29639 3.787 3.29639 4.75781V19.2422C3.29639 20.213 4.08339 21 5.0542 21H19.5386C20.5094 21 21.2964 20.213 21.2964 19.2422V4.75781C21.2964 3.787 20.5094 3 19.5386 3Z" fill="url(#paint0_linear_18_1611)"/>
<path d="M18.1127 5.34H14.3102C13.8442 5.34 13.4664 5.71776 13.4664 6.18375V12.3712C13.4664 12.8372 13.8442 13.215 14.3102 13.215H18.1127C18.5787 13.215 18.9564 12.8372 18.9564 12.3712V6.18375C18.9564 5.71776 18.5787 5.34 18.1127 5.34Z" fill="white"/>
<path d="M10.2826 5.34H6.4801C6.01411 5.34 5.63635 5.71776 5.63635 6.18375V16.8712C5.63635 17.3372 6.01411 17.715 6.4801 17.715H10.2826C10.7486 17.715 11.1264 17.3372 11.1264 16.8712V6.18375C11.1264 5.71776 10.7486 5.34 10.2826 5.34Z" fill="white"/>
<defs>
<linearGradient id="paint0_linear_18_1611" x1="12.2964" y1="3" x2="12.2964" y2="21" gradientUnits="userSpaceOnUse">
<stop stop-color="#0091E6"/>
<stop offset="1" stop-color="#0079BF"/>
</linearGradient>
</defs>
</svg>
