<svg width="25" height="24" viewBox="0 0 25 24" fill="none" xmlns="http://www.w3.org/2000/svg">
<path d="M17.8945 16.6762C17.7826 16.6158 17.6464 16.6217 17.5401 16.6916C16.7356 17.2204 15.9201 17.4885 15.1159 17.4885C14.6838 17.4885 14.3125 17.392 13.9794 17.1926C13.753 17.0586 13.5427 16.8242 13.4673 16.6205C13.3941 16.4269 13.395 15.9056 13.3961 15.1841L13.3964 10.785H17.0515C17.2427 10.785 17.3976 10.63 17.3976 10.4388V7.34783C17.3976 7.15668 17.2427 7.00168 17.0515 7.00168H13.3964V3.34615C13.3964 3.15501 13.2415 3 13.0503 3H10.588C10.413 3 10.2655 3.13064 10.2443 3.30441C10.1415 4.15103 9.94955 4.854 9.67339 5.3949C9.40408 5.92798 9.03972 6.39189 8.58986 6.77432C8.22944 7.08171 7.61246 7.37912 6.75594 7.65833C6.61346 7.70478 6.51709 7.83757 6.51709 7.98745V10.4389C6.51709 10.6301 6.67203 10.7851 6.86324 10.7851H8.86768V16.5081C8.86768 17.3514 8.95713 17.986 9.14128 18.4484C9.3289 18.9181 9.66197 19.3604 10.1315 19.7633C10.5933 20.159 11.1554 20.4685 11.804 20.6839C12.4327 20.889 12.9335 21.0001 13.7778 21.0001C14.4916 21.0001 15.1719 20.9261 15.8002 20.78C16.4179 20.6358 17.1168 20.3811 17.8777 20.023C17.9991 19.9659 18.0765 19.8439 18.0765 19.7098V16.9809C18.0763 16.8536 18.0066 16.7366 17.8945 16.6762Z" fill="black"/>
</svg>
