<svg width="25" height="24" viewBox="0 0 25 24" fill="none" xmlns="http://www.w3.org/2000/svg">
<path d="M8.9572 19.6341C15.75 19.6341 19.4647 14.0045 19.4647 9.12273C19.4647 8.96285 19.4614 8.80371 19.4542 8.64522C20.177 8.12202 20.8008 7.47421 21.2964 6.73217C20.6347 7.02646 19.9226 7.22454 19.1756 7.31384C19.9381 6.85649 20.5234 6.13294 20.7996 5.27048C20.0746 5.70068 19.2816 6.00395 18.4545 6.16722C17.7806 5.44912 16.8212 5 15.7589 5C13.7194 5 12.0656 6.65446 12.0656 8.69384C12.0656 8.98378 12.0981 9.26571 12.1615 9.53622C9.09213 9.38172 6.37047 7.91165 4.549 5.67632C4.22093 6.24011 4.04837 6.88087 4.04895 7.53317C4.04895 8.8149 4.7009 9.94638 5.69236 10.6084C5.1059 10.5904 4.53231 10.432 4.01983 10.1463C4.01928 10.1618 4.01928 10.1769 4.01928 10.1935C4.01928 11.9826 5.29223 13.4764 6.98203 13.8149C6.66466 13.9014 6.33718 13.9451 6.00824 13.9449C5.77069 13.9449 5.53918 13.9215 5.31418 13.8783C5.78434 15.3462 7.14766 16.4144 8.76403 16.4442C7.50004 17.4353 5.90781 18.0256 4.17729 18.0256C3.8829 18.0258 3.58876 18.0088 3.29639 17.9744C4.9308 19.0224 6.87133 19.6341 8.9572 19.6341Z" fill="#1D9BF0"/>
</svg>
