<svg width="25" height="24" viewBox="0 0 25 24" fill="none" xmlns="http://www.w3.org/2000/svg">
<path d="M22.2866 7.36503C22.197 9.30621 20.8375 11.9648 18.2081 15.3401C15.489 18.8642 13.1877 20.627 11.3057 20.627C10.1406 20.627 9.15397 19.552 8.34738 17.4013L6.73421 11.4873C6.13567 9.3358 5.49313 8.26083 4.80657 8.26083C4.65693 8.26083 4.13441 8.57437 3.2374 9.20143L2.29639 7.99209C3.27421 7.13307 4.24484 6.26686 5.20986 5.39345C6.52456 4.25849 7.51039 3.66102 8.16814 3.60183C9.7221 3.45226 10.6783 4.51284 11.0368 6.78275C11.4249 9.23183 11.6946 10.7555 11.8434 11.3522C12.2915 13.3829 12.7844 14.3987 13.3221 14.3987C13.7406 14.3987 14.368 13.7413 15.205 12.4271C16.042 11.113 16.4901 10.1124 16.5493 9.42538C16.6685 8.29043 16.2204 7.72255 15.205 7.72255C14.7273 7.72255 14.2335 7.82733 13.7262 8.03608C14.7121 4.83997 16.5949 3.2875 19.3739 3.37708C21.4352 3.43707 22.4058 4.76638 22.2866 7.36503Z" fill="#1AB7EA"/>
</svg>
