<svg width="25" height="24" viewBox="0 0 25 24" fill="none" xmlns="http://www.w3.org/2000/svg">
<path d="M3.29639 11.64C3.29639 7.56705 3.29639 5.5306 4.56169 4.2653C5.82698 3 7.86344 3 11.9364 3H12.6564C16.7293 3 18.7658 3 20.0311 4.2653C21.2964 5.5306 21.2964 7.56705 21.2964 11.64V12.36C21.2964 16.433 21.2964 18.4694 20.0311 19.7347C18.7658 21 16.7293 21 12.6564 21H11.9364C7.86344 21 5.82698 21 4.56169 19.7347C3.29639 18.4694 3.29639 16.433 3.29639 12.36V11.64Z" fill="#0077FF"/>
<path d="M12.8735 15.9676C8.77096 15.9676 6.431 13.1551 6.3335 8.4751H8.3885C8.456 11.9101 9.97096 13.3651 11.171 13.6651V8.4751H13.106V11.4376C14.291 11.3101 15.5359 9.9601 15.9559 8.4751H17.8909C17.5684 10.3051 16.2184 11.6551 15.2584 12.2101C16.2184 12.6601 17.756 13.8376 18.341 15.9676H16.2109C15.7534 14.5426 14.6135 13.4401 13.106 13.2901V15.9676H12.8735Z" fill="white"/>
</svg>
