<svg width="25" height="24" viewBox="0 0 25 24" fill="none" xmlns="http://www.w3.org/2000/svg">
<path d="M7.39108 10.3214C7.39108 10.3214 7.69678 7.91921 7.39108 6.82929C7.08537 5.73937 6.36754 5.1753 5.30434 5.10937C4.24114 5.04344 2.72454 6.02825 2.45979 8.70655C2.22158 10.7404 2.2439 12.7957 2.52622 14.824C2.75195 16.15 3.40367 18.0409 4.5333 18.7888C5.66293 19.5366 7.05893 19.5634 8.08214 18.684C9.10535 17.8046 10.9267 13.3933 11.6445 12.4216C11.6445 12.4216 11.392 15.6512 12.7877 16.7672C14.1834 17.8833 16.1092 17.6075 16.9476 16.1108C17.7861 14.6142 19.7122 10.715 20.8154 9.12666C21.9186 7.53828 22.6367 6.50123 22.1317 5.66229C21.6267 4.82335 20.0714 4.91413 19.0614 5.84607C18.0515 6.77801 15.6055 9.34993 15.6055 9.34993C15.6055 9.34993 16.1105 5.43934 14.5287 4.8603C12.947 4.28126 11.166 4.8603 9.47781 7.30195L7.39108 10.3214Z" fill="#FF500A"/>
</svg>
