<svg width="25" height="24" viewBox="0 0 25 24" fill="none" xmlns="http://www.w3.org/2000/svg">
<path d="M12.2964 21C17.2669 21 21.2964 16.9706 21.2964 12C21.2964 7.02944 17.2669 3 12.2964 3C7.32582 3 3.29639 7.02944 3.29639 12C3.29639 16.9706 7.32582 21 12.2964 21Z" fill="#4353FF"/>
<path d="M14.9397 10.931L14.1241 13.5016C14.1241 13.3048 13.5616 9.04102 13.5616 9.04102C12.2678 9.04102 11.5816 9.95789 11.2216 10.931L10.226 13.5073C10.226 13.3216 10.0853 10.9535 10.0853 10.9535C10.0373 10.4409 9.80295 9.96363 9.42663 9.6122C9.05032 9.26076 8.55819 9.05954 8.04346 9.04664L9.10096 15.5041C10.451 15.5041 11.1822 14.5873 11.5591 13.6141L12.4028 11.4204C12.4028 11.5104 12.9653 15.5041 12.9653 15.5041C13.5174 15.5034 14.0548 15.327 14.4998 15.0003C14.9448 14.6736 15.2742 14.2137 15.4403 13.6873L17.3528 9.04102C16.0028 9.04102 15.2941 9.95789 14.9341 10.931H14.9397Z" fill="white"/>
</svg>
