<svg width="25" height="24" viewBox="0 0 25 24" fill="none" xmlns="http://www.w3.org/2000/svg">
<g filter="url(#filter0_d_18_1689)">
<path d="M18.6735 5.61711C16.9804 3.93028 14.7285 3.00089 12.3321 3C7.39141 3 3.37013 7.00248 3.36788 11.9227C3.36743 13.4265 3.74866 14.9083 4.47165 16.22L3.31227 20.4355C3.27011 20.5896 3.31317 20.7539 3.42619 20.8674C3.5114 20.9531 3.62667 21 3.74508 21C3.7832 21 3.82132 20.9951 3.859 20.9853L8.20365 19.8509C9.47202 20.5065 10.8938 20.8526 12.3285 20.8531C17.2729 20.8531 21.2941 16.8501 21.2964 11.9299C21.2973 9.54545 20.3657 7.30349 18.6735 5.61711Z" fill="white"/>
</g>
<g filter="url(#filter1_i_18_1689)">
<path d="M17.3377 6.9439C16.0011 5.61212 14.2246 4.87835 12.3337 4.8779C8.42993 4.8779 5.25497 8.03808 5.25317 11.9227C5.25273 13.254 5.62678 14.55 6.33541 15.6724L6.50405 15.939L5.78869 18.5387L8.4676 17.8393L8.72639 17.992C9.81267 18.6342 11.0586 18.9737 12.3288 18.9741H12.3315C16.2326 18.9741 19.4075 15.8135 19.4089 11.9285C19.4093 10.046 18.6742 8.27567 17.3377 6.9439Z" fill="url(#paint0_linear_18_1689)"/>
</g>
<path fill-rule="evenodd" clip-rule="evenodd" d="M10.2366 8.28371C10.0774 7.93089 9.90965 7.92374 9.75761 7.91749C9.63337 7.91213 9.49165 7.91258 9.34992 7.91258C9.20819 7.91258 8.97766 7.96572 8.78256 8.17786C8.58746 8.39 8.0376 8.90225 8.0376 9.94463C8.0376 10.987 8.80005 11.9946 8.90635 12.1357C9.01265 12.2768 10.3783 14.4844 12.541 15.3338C14.3382 16.0395 14.7042 15.8992 15.0944 15.8639C15.4846 15.8287 16.3533 15.3517 16.5305 14.8568C16.7076 14.362 16.7076 13.9382 16.6547 13.8498C16.6013 13.7613 16.4596 13.7086 16.247 13.6023C16.0344 13.496 14.9881 12.9838 14.793 12.9132C14.5979 12.8427 14.4561 12.8074 14.314 13.0195C14.1722 13.2312 13.7645 13.7086 13.6403 13.8498C13.5161 13.9913 13.3918 14.0092 13.1792 13.9029C12.9667 13.7966 12.2813 13.5733 11.4682 12.8516C10.8358 12.2902 10.4088 11.5966 10.2846 11.3845C10.1604 11.1728 10.2711 11.058 10.3779 10.9522C10.4734 10.857 10.5905 10.7048 10.6972 10.581C10.8035 10.4573 10.839 10.3689 10.9098 10.2278C10.9807 10.0862 10.9453 9.9625 10.8919 9.85665C10.8394 9.75036 10.4259 8.70262 10.2366 8.28371Z" fill="white"/>
<defs>
<filter id="filter0_d_18_1689" x="1.89639" y="2.6" width="20.8" height="20.8" filterUnits="userSpaceOnUse" color-interpolation-filters="sRGB">
<feFlood flood-opacity="0" result="BackgroundImageFix"/>
<feColorMatrix in="SourceAlpha" type="matrix" values="0 0 0 0 0 0 0 0 0 0 0 0 0 0 0 0 0 0 127 0" result="hardAlpha"/>
<feOffset dy="1"/>
<feGaussianBlur stdDeviation="0.7"/>
<feColorMatrix type="matrix" values="0 0 0 0 0.562353 0 0 0 0 0.609412 0 0 0 0 0.717647 0 0 0 0.24 0"/>
<feBlend mode="normal" in2="BackgroundImageFix" result="effect1_dropShadow_18_1689"/>
<feBlend mode="normal" in="SourceGraphic" in2="effect1_dropShadow_18_1689" result="shape"/>
</filter>
<filter id="filter1_i_18_1689" x="5.25317" y="4.8779" width="14.1556" height="14.2962" filterUnits="userSpaceOnUse" color-interpolation-filters="sRGB">
<feFlood flood-opacity="0" result="BackgroundImageFix"/>
<feBlend mode="normal" in="SourceGraphic" in2="BackgroundImageFix" result="shape"/>
<feColorMatrix in="SourceAlpha" type="matrix" values="0 0 0 0 0 0 0 0 0 0 0 0 0 0 0 0 0 0 127 0" result="hardAlpha"/>
<feOffset dy="0.2"/>
<feGaussianBlur stdDeviation="0.1"/>
<feComposite in2="hardAlpha" operator="arithmetic" k2="-1" k3="1"/>
<feColorMatrix type="matrix" values="0 0 0 0 0.263875 0 0 0 0 0.604167 0 0 0 0 0.206424 0 0 0 0.3 0"/>
<feBlend mode="normal" in2="shape" result="effect1_innerShadow_18_1689"/>
</filter>
<linearGradient id="paint0_linear_18_1689" x1="12.331" y1="4.8779" x2="12.331" y2="18.9741" gradientUnits="userSpaceOnUse">
<stop stop-color="#7FCE76"/>
<stop offset="1" stop-color="#58B04E"/>
</linearGradient>
</defs>
</svg>
