<svg width="25" height="24" viewBox="0 0 25 24" fill="none" xmlns="http://www.w3.org/2000/svg">
<g clip-path="url(#clip0_18_1719)">
<path d="M49.3072 10.085H46.1843V10.4163C47.1611 10.4163 47.3182 10.6257 47.3182 11.8643V14.0976C47.3182 15.3362 47.1614 15.5632 46.1843 15.5632C45.4345 15.4585 44.9282 15.0573 44.2304 14.2895L43.428 13.4173C44.5094 13.2251 45.0851 12.5449 45.0851 11.7772C45.0851 10.8178 44.2654 10.085 42.73 10.085H39.6595V10.4163C40.6364 10.4163 40.7934 10.6257 40.7934 11.8643V14.0976C40.7934 15.3362 40.6365 15.5632 39.6595 15.5632V15.8947H43.1312V15.5632C42.1545 15.5632 41.9973 15.3362 41.9973 14.0976V13.4699H42.294L44.2305 15.8947H49.3074C51.8021 15.8947 52.8839 14.5689 52.8839 12.9811C52.8836 11.3934 51.8021 10.085 49.3072 10.085ZM41.9975 12.9285V10.6085H42.7127C43.4976 10.6085 43.8467 11.1493 43.8467 11.7773C43.8467 12.388 43.4976 12.9287 42.7127 12.9287L41.9975 12.9285ZM49.3597 15.3537H49.2374C48.6095 15.3537 48.5223 15.197 48.5223 14.3944V10.6085H49.3597C51.174 10.6085 51.5051 11.9342 51.5051 12.9636C51.5053 14.0277 51.1739 15.3537 49.3597 15.3537ZM29.9425 13.5743L31.1462 10.015C31.4952 8.98571 31.3383 8.68939 30.2217 8.68939V8.34033H33.5015V8.68939C32.4026 8.68939 32.1408 8.95089 31.7047 10.2245L29.7157 16.1911H29.489L27.7093 10.7304L25.8951 16.1911H25.6682L23.7317 10.2246C23.313 8.95104 23.0339 8.68954 22.022 8.68954V8.34048H25.895V8.68954C24.8654 8.68954 24.5863 8.93371 24.9529 10.0151L26.1217 13.5745L27.8836 8.34048H28.2153L29.9425 13.5743ZM35.8739 16.1212C33.955 16.1212 32.3848 14.7082 32.3848 12.9808C32.3848 11.2711 33.955 9.85792 35.8739 9.85792C37.7929 9.85792 39.3631 11.2711 39.3631 12.9808C39.3631 14.7082 37.793 16.1212 35.8739 16.1212ZM35.8739 10.3991C34.2691 10.3991 33.7105 11.8468 33.7105 12.981C33.7105 14.1326 34.2691 15.5631 35.8739 15.5631C37.4966 15.5631 38.0548 14.1326 38.0548 12.981C38.0548 11.8468 37.4966 10.3991 35.8739 10.3991Z" fill="#00749A"/>
<path d="M4.57569 11.9997C4.57569 15.0559 6.3517 17.6968 8.92705 18.9485L5.24413 8.85761C4.80263 9.84626 4.57485 10.917 4.57569 11.9997ZM17.5086 11.6101C17.5086 10.6559 17.1658 9.99514 16.8719 9.4808C16.4805 8.84483 16.1138 8.30625 16.1138 7.67027C16.1138 6.96054 16.6519 6.29988 17.4101 6.29988C17.4444 6.29988 17.4768 6.30414 17.5103 6.30605C16.1366 5.04761 14.3065 4.27927 12.2965 4.27927C9.59917 4.27927 7.22611 5.66317 5.84559 7.7593C6.02673 7.76473 6.19759 7.76841 6.34244 7.76841C7.15001 7.76841 8.40008 7.67042 8.40008 7.67042C8.81628 7.64588 8.86535 8.25718 8.44973 8.3064C8.44973 8.3064 8.03133 8.35561 7.56592 8.38L10.3775 16.7429L12.0673 11.6755L10.8642 8.37985C10.4485 8.35546 10.0546 8.30625 10.0546 8.30625C9.63854 8.28186 9.68731 7.64574 10.1034 7.67027C10.1034 7.67027 11.3784 7.76826 12.1371 7.76826C12.9445 7.76826 14.1947 7.67027 14.1947 7.67027C14.6112 7.64574 14.6601 8.25703 14.2442 8.30625C14.2442 8.30625 13.8251 8.35546 13.3605 8.37985L16.1507 16.6795L16.9206 14.106C17.2546 13.0381 17.5086 12.2711 17.5086 11.6101Z" fill="#00749A"/>
<path d="M12.4322 12.675L10.1157 19.4062C10.8239 19.6149 11.5584 19.7208 12.2968 19.7208C13.1959 19.7208 14.0581 19.5653 14.8607 19.2832C14.8392 19.2495 14.8208 19.2139 14.8057 19.1768L12.4322 12.675ZM19.0715 8.29541C19.1047 8.54134 19.1235 8.80549 19.1235 9.08932C19.1235 9.8728 18.9772 10.7535 18.5364 11.8548L16.1781 18.6734C18.4734 17.3349 20.0173 14.8481 20.0173 11.9996C20.0194 10.7049 19.694 9.43067 19.0715 8.29541Z" fill="#00749A"/>
<path d="M12.2966 2.99994C7.3341 2.99994 3.29651 7.03721 3.29651 11.9997C3.29651 16.9628 7.33395 21.0001 12.2966 21.0001C17.259 21.0001 21.2972 16.963 21.2972 11.9997C21.2971 7.03721 17.259 2.99994 12.2966 2.99994ZM12.2966 20.5874C7.56166 20.5874 3.70919 16.735 3.70919 11.9997C3.70919 7.26492 7.56152 3.41276 12.2966 3.41276C17.0315 3.41276 20.8837 7.26492 20.8837 11.9997C20.8837 16.735 17.0313 20.5874 12.2966 20.5874Z" fill="#00749A"/>
</g>
<defs>
<clipPath id="clip0_18_1719">
<rect width="24" height="24" fill="white" transform="translate(0.296387)"/>
</clipPath>
</defs>
</svg>
