<svg width="25" height="24" viewBox="0 0 25 24" fill="none" xmlns="http://www.w3.org/2000/svg">
<path d="M5.75505 6.31333C5.59188 6.31333 5.45455 6.37066 5.38527 6.4828C5.31384 6.59851 5.32465 6.74768 5.40088 6.89864L7.23407 10.072C7.23717 10.078 7.23717 10.0819 7.23407 10.0874L4.3533 15.1711C4.2782 15.3207 4.28186 15.471 4.3533 15.587C4.42248 15.6986 4.5444 15.7718 4.70776 15.7718H7.41896C7.82426 15.7718 8.01987 15.4983 8.15842 15.2482C8.15842 15.2482 10.9757 10.2655 11.0854 10.0721C11.0743 10.0542 9.2215 6.82175 9.2215 6.82175C9.08624 6.5814 8.88256 6.31323 8.46672 6.31323H5.75505V6.31333Z" fill="#005A5F"/>
<path d="M17.1445 2.60062C16.7395 2.60062 16.564 2.85573 16.4186 3.11703C16.4186 3.11703 10.5778 13.4753 10.3853 13.8154C10.3951 13.8338 14.2376 20.883 14.2376 20.883C14.3722 21.1234 14.5798 21.3994 14.9952 21.3994H17.7032C17.8665 21.3994 17.9942 21.3379 18.063 21.2262C18.1353 21.1105 18.1333 20.9576 18.0574 20.8071L14.2352 13.8237C14.2334 13.8211 14.2325 13.818 14.2325 13.8149C14.2325 13.8117 14.2334 13.8086 14.2352 13.806L20.238 3.19204C20.3135 3.04221 20.3151 2.88938 20.2438 2.77358C20.1746 2.66191 20.0466 2.60034 19.8832 2.60034H17.1443V2.60053H17.1445V2.60062Z" fill="#D4D600"/>
</svg>
