<svg width="25" height="24" viewBox="0 0 25 24" fill="none" xmlns="http://www.w3.org/2000/svg">
<path d="M11.9229 3.15155C11.8605 2.92298 11.6734 2.7563 11.4238 2.67345C10.6338 2.46535 7.55621 3.33869 6.99478 3.94057C6.80763 4.12772 6.74525 4.37919 6.80763 4.58534C6.89097 4.77249 10.6962 10.8444 10.6962 10.8444C11.2577 11.7592 11.7148 11.6344 11.8605 11.5721C12.0067 11.5306 12.4634 11.3849 12.422 10.3049C12.3386 9.03683 11.9643 3.42203 11.9229 3.15155ZM10.28 14.5464C10.5919 14.4635 10.8 14.1721 10.821 13.8188C10.8415 13.4445 10.6543 13.1116 10.3424 12.9868L9.47053 12.6335C6.49767 11.3859 6.37242 11.3445 6.22671 11.3445C5.99814 11.3235 5.78809 11.4483 5.64481 11.6768C5.35239 12.1554 5.2286 13.694 5.3329 14.713C5.37432 15.0454 5.43671 15.3369 5.52004 15.503C5.64481 15.7316 5.83195 15.8773 6.06052 15.8773C6.20672 15.8773 6.28909 15.8564 9.05482 14.9626L10.28 14.5464ZM11.8396 15.6902C11.5072 15.544 11.1329 15.6278 10.9248 15.8983L10.3219 16.6259C8.2424 19.1212 8.15906 19.225 8.09668 19.3707C8.0628 19.4566 8.04865 19.549 8.05526 19.6412C8.06146 19.7824 8.12082 19.9161 8.22145 20.0155C8.70003 20.5974 11.0081 21.4707 11.7567 21.3459C11.8735 21.3311 11.9838 21.2843 12.0755 21.2106C12.1672 21.1368 12.2367 21.0391 12.2762 20.9283C12.3181 20.7821 12.3386 20.6787 12.3386 17.7468V16.4178C12.3805 16.1059 12.1724 15.815 11.8396 15.6902ZM19.0758 16.275C18.951 16.1917 18.8682 16.1503 16.1029 15.235C16.1029 15.235 14.8967 14.8193 14.8763 14.8193C14.5839 14.6945 14.2525 14.7983 14.0234 15.0898C13.7943 15.3812 13.7534 15.755 13.9405 16.046L14.4186 16.8569C16.0615 19.5603 16.1863 19.7474 16.2901 19.8512C16.4772 19.9974 16.7058 20.0179 16.9553 19.9136C17.6625 19.6212 19.1806 17.6679 19.2844 16.8988C19.3253 16.6469 19.2629 16.4178 19.0758 16.2726V16.275ZM14.6263 13.1974C15.0649 13.114 18.6391 12.2617 18.9306 12.0536C19.1177 11.9288 19.223 11.7002 19.2006 11.4297V11.4093C19.1177 10.6188 17.7658 8.58262 17.1005 8.2483C16.872 8.14449 16.6225 8.14449 16.4353 8.26925C16.3105 8.35259 16.2272 8.47735 14.5429 10.8059L13.7734 11.8635C13.5658 12.113 13.5658 12.4668 13.7734 12.7787C13.9815 13.1116 14.1896 13.2768 14.6263 13.1949V13.1974Z" fill="#D32323"/>
</svg>
