<svg width="25" height="24" viewBox="0 0 25 24" fill="none" xmlns="http://www.w3.org/2000/svg">
<path d="M12.6952 18.4349L9.00226 18.3674C7.80658 18.3439 6.60793 18.3908 5.43569 18.147C3.65245 17.7827 3.52612 15.9965 3.39393 14.4982C3.21178 12.3918 3.2823 10.2471 3.62603 8.15831C3.82008 6.98626 4.58375 6.28688 5.76473 6.21078C9.75141 5.93458 13.7646 5.96731 17.7425 6.09617C18.1626 6.10798 18.5856 6.17255 18.9998 6.24604C21.0446 6.60447 21.0945 8.62865 21.2271 10.3326C21.3592 12.0542 21.3034 13.7846 21.0508 15.4944C20.8481 16.9101 20.4602 18.0973 18.8235 18.2119C16.7728 18.3618 14.7692 18.4825 12.7127 18.444C12.7128 18.4349 12.701 18.4349 12.6952 18.4349ZM10.5241 14.8508C12.0695 13.9635 13.5853 13.091 15.1219 12.2096C13.5736 11.3224 12.0606 10.4499 10.5241 9.56851V14.8508Z" fill="#FF0000"/>
</svg>
