<svg width="25" height="24" viewBox="0 0 25 24" fill="none" xmlns="http://www.w3.org/2000/svg">
<path d="M14.5463 12.0039C14.5466 12.653 14.4295 13.2967 14.2007 13.9041C13.5932 14.1328 12.9493 14.2501 12.3 14.2502H12.2924C11.6239 14.2494 10.9834 14.1272 10.3923 13.9043C10.1634 13.2969 10.0462 12.6531 10.0464 12.0039V11.9961C10.0461 11.3472 10.163 10.7035 10.3916 10.0962C10.9992 9.86701 11.6432 9.74971 12.2925 9.75H12.3001C12.9494 9.74969 13.5933 9.86696 14.2008 10.0961C14.4296 10.7034 14.5467 11.3471 14.5464 11.996V12.0039L14.5463 12.0039ZM21.1714 10.5H15.9179L19.6324 6.7852C19.3409 6.37564 19.0157 5.99113 18.6602 5.63566V5.63538C18.3046 5.2803 17.9202 4.95537 17.5109 4.66395L13.7961 8.37877V3.1253C13.302 3.04218 12.8019 3.00027 12.3009 3L12.2916 3C11.782 3.00028 11.2828 3.04359 10.7964 3.1253V8.37877L7.08159 4.66395C6.67219 4.95529 6.28795 5.28045 5.93289 5.63602L5.93093 5.63742C5.57603 5.99244 5.25126 6.37636 4.95998 6.7852L8.67508 10.5H3.42168C3.42168 10.5 3.29639 11.4867 3.29639 11.9969V12.0031C3.29639 12.5133 3.33963 13.0133 3.42168 13.5H8.67515L4.96005 17.2148C5.54446 18.0349 6.26146 18.7519 7.08159 19.3363L10.7964 15.6212V20.875C11.2899 20.9577 11.7894 20.9995 12.2898 21H12.3026C12.803 20.9995 13.3025 20.9577 13.796 20.875V15.6212L17.5112 19.3363C17.9204 19.0448 18.3047 18.7198 18.6602 18.3646L18.661 18.3638C19.016 18.0083 19.3409 17.624 19.6324 17.2148L15.9173 13.5H21.1714C21.2531 13.0141 21.2958 12.5156 21.2964 12.0065V11.9935C21.2958 11.4844 21.2531 10.9859 21.1714 10.5Z" fill="#FF4A00"/>
</svg>
