<svg width="25" height="24" viewBox="0 0 25 24" fill="none" xmlns="http://www.w3.org/2000/svg">
<path d="M11.6111 8.5657V18.4999H3.29639L11.6111 8.5657Z" fill="#03363D"/>
<path d="M11.6111 5C11.6111 6.09114 11.1731 7.1376 10.3934 7.90915C9.61375 8.68071 8.55632 9.11417 7.45372 9.11417C6.35113 9.11417 5.29369 8.68071 4.51404 7.90915C3.73439 7.1376 3.29639 6.09114 3.29639 5H11.6111Z" fill="#03363D"/>
<path d="M12.9808 18.5C12.9808 17.4088 13.4188 16.3624 14.1985 15.5908C14.9781 14.8193 16.0356 14.3858 17.1382 14.3858C18.2408 14.3858 19.2982 14.8193 20.0779 15.5908C20.8575 16.3624 21.2955 17.4088 21.2955 18.5H12.9808Z" fill="#03363D"/>
<path d="M12.9808 14.9342V5H21.2964L12.9808 14.9342Z" fill="#03363D"/>
</svg>
